<svg width="100" height="100" viewBox="0 0 100 100" fill="none" xmlns="http://www.w3.org/2000/svg">
<g clip-path="url(#clip0_1118_3793)">
<g filter="url(#filter0_d_1118_3793)">
<path d="M66.456 22.24C65.3893 22.24 64.5227 22 63.856 21.52C63.1893 21.04 62.784 20.3653 62.64 19.496L64.608 19.192C64.7093 19.6187 64.9333 19.9547 65.28 20.2C65.6267 20.4453 66.064 20.568 66.592 20.568C67.056 20.568 67.4133 20.4773 67.664 20.296C67.92 20.1093 68.048 19.856 68.048 19.536C68.048 19.3387 68 19.1813 67.904 19.064C67.8133 18.9413 67.6107 18.824 67.296 18.712C66.9813 18.6 66.4987 18.4587 65.848 18.288C65.1227 18.096 64.5467 17.8907 64.12 17.672C63.6933 17.448 63.3867 17.184 63.2 16.88C63.0133 16.576 62.92 16.208 62.92 15.776C62.92 15.2373 63.0613 14.768 63.344 14.368C63.6267 13.968 64.0213 13.6613 64.528 13.448C65.0347 13.2293 65.632 13.12 66.32 13.12C66.992 13.12 67.5867 13.224 68.104 13.432C68.6267 13.64 69.048 13.936 69.368 14.32C69.688 14.704 69.8853 15.1547 69.96 15.672L67.992 16.024C67.944 15.656 67.776 15.3653 67.488 15.152C67.2053 14.9387 66.8267 14.8187 66.352 14.792C65.8987 14.7653 65.5333 14.8347 65.256 15C64.9787 15.16 64.84 15.3867 64.84 15.68C64.84 15.8453 64.896 15.9867 65.008 16.104C65.12 16.2213 65.344 16.3387 65.68 16.456C66.0213 16.5733 66.528 16.7173 67.2 16.888C67.888 17.064 68.4373 17.2667 68.848 17.496C69.264 17.72 69.5627 17.9893 69.744 18.304C69.9307 18.6187 70.024 19 70.024 19.448C70.024 20.3173 69.7067 21 69.072 21.496C68.4427 21.992 67.5707 22.24 66.456 22.24ZM76.8402 22C76.2696 22.1067 75.7096 22.152 75.1602 22.136C74.6162 22.1253 74.1282 22.0267 73.6962 21.84C73.2642 21.648 72.9362 21.3467 72.7122 20.936C72.5149 20.5627 72.4109 20.1813 72.4002 19.792C72.3896 19.4027 72.3842 18.9627 72.3842 18.472V10.96H74.3042L74.3042 18.36C74.3042 18.7067 74.3069 19.0107 74.3122 19.272C74.3229 19.5333 74.3789 19.7467 74.4802 19.912C74.6722 20.232 74.9789 20.4107 75.4002 20.448C75.8216 20.4853 76.3016 20.464 76.8402 20.384V22ZM70.8162 14.872V13.36H76.8402V14.872H70.8162Z" fill="#94E95D"/>
<path d="M63.856 21.52L62.4256 23.5067L62.4256 23.5067L63.856 21.52ZM62.64 19.496L62.2663 17.0766L59.8204 17.4545L60.2249 19.8961L62.64 19.496ZM64.608 19.192L66.9898 18.6263L66.4676 16.4277L64.2343 16.7726L64.608 19.192ZM65.28 20.2L63.8658 22.1983L63.8658 22.1983L65.28 20.2ZM67.664 20.296L69.0989 22.2795L69.1063 22.274L67.664 20.296ZM67.904 19.064L65.9353 20.5191L65.9712 20.5676L66.0093 20.6142L67.904 19.064ZM67.296 18.712L68.1169 16.4057L68.1169 16.4057L67.296 18.712ZM65.848 18.288L65.2216 20.6545L65.2269 20.6559L65.848 18.288ZM64.12 17.672L62.9821 19.8395L62.9927 19.8451L63.0035 19.8506L64.12 17.672ZM63.2 16.88L65.2862 15.599L65.2862 15.599L63.2 16.88ZM63.344 14.368L65.3432 15.7808L65.3432 15.7808L63.344 14.368ZM64.528 13.448L65.478 15.7042L65.488 15.7L65.498 15.6957L64.528 13.448ZM68.104 13.432L67.1908 15.7033L67.1988 15.7065L68.104 13.432ZM69.368 14.32L67.4874 15.8872L67.4874 15.8872L69.368 14.32ZM69.96 15.672L70.391 18.0818L72.7211 17.665L72.3829 15.3223L69.96 15.672ZM67.992 16.024L65.5645 16.3406L65.8965 18.8857L68.423 18.4338L67.992 16.024ZM67.488 15.152L66.0133 17.106L66.022 17.1126L66.0309 17.1191L67.488 15.152ZM66.352 14.792L66.2082 17.2358L66.2147 17.2362L66.352 14.792ZM65.256 15L66.4793 17.1205L66.4945 17.1117L66.5096 17.1027L65.256 15ZM65.68 16.456L64.8729 18.7672L64.8842 18.7711L65.68 16.456ZM67.2 16.888L67.8067 14.5163L67.8026 14.5153L67.2 16.888ZM68.848 17.496L67.6544 19.6334L67.6708 19.6425L67.6874 19.6514L68.848 17.496ZM69.744 18.304L67.6229 19.5263L67.6307 19.5397L67.6385 19.553L69.744 18.304ZM69.072 21.496L67.5645 19.5671L67.5567 19.5733L69.072 21.496ZM66.456 19.7919C65.7499 19.7919 65.4275 19.6349 65.2864 19.5333L62.4256 23.5067C63.6178 24.3651 65.0288 24.688 66.456 24.688V19.7919ZM65.2864 19.5333C65.1854 19.4606 65.1019 19.3783 65.0551 19.0959L60.2249 19.8961C60.4661 21.3523 61.1932 22.6194 62.4256 23.5067L65.2864 19.5333ZM63.0137 21.9153L64.9817 21.6113L64.2343 16.7726L62.2663 17.0766L63.0137 21.9153ZM62.2262 19.7577C62.4602 20.743 63.016 21.5969 63.8658 22.1983L66.6942 18.2017C66.7531 18.2434 66.8258 18.3115 66.8889 18.4061C66.9512 18.4996 66.9792 18.5815 66.9898 18.6263L62.2262 19.7577ZM63.8658 22.1983C64.7171 22.8007 65.6819 23.016 66.592 23.016V18.1199C66.5162 18.1199 66.501 18.111 66.5291 18.1189C66.5435 18.1229 66.5672 18.1308 66.5972 18.1449C66.6275 18.1591 66.6605 18.1779 66.6942 18.2017L63.8658 22.1983ZM66.592 23.016C67.3275 23.016 68.2691 22.8797 69.0988 22.2795L66.2292 18.3125C66.3974 18.1908 66.5411 18.1436 66.6059 18.1271C66.667 18.1116 66.6707 18.1199 66.592 18.1199V23.016ZM69.1063 22.274C70.0018 21.6211 70.496 20.6289 70.496 19.536H65.6C65.6 19.3618 65.6371 19.1191 65.767 18.862C65.8974 18.6041 66.0733 18.4262 66.2217 18.318L69.1063 22.274ZM70.496 19.536C70.496 18.9461 70.3484 18.1857 69.7987 17.5138L66.0093 20.6142C65.6516 20.177 65.6 19.7312 65.6 19.536H70.496ZM69.8727 17.6089C69.3058 16.842 68.4591 16.5275 68.1169 16.4057L66.4751 21.0183C66.5459 21.0435 66.527 21.0429 66.4574 21.0026C66.4198 20.9808 66.3502 20.9376 66.2648 20.8677C66.1805 20.7987 66.0584 20.6855 65.9353 20.5191L69.8727 17.6089ZM68.1169 16.4057C67.6997 16.2572 67.1341 16.0945 66.4691 15.9201L65.2269 20.6559C65.8632 20.8228 66.2629 20.9428 66.4751 21.0183L68.1169 16.4057ZM66.4744 15.9215C65.8351 15.7522 65.4453 15.6004 65.2365 15.4934L63.0035 19.8506C63.648 20.1809 64.4103 20.4398 65.2216 20.6545L66.4744 15.9215ZM65.2579 15.5045C65.1788 15.463 65.1561 15.4412 65.1672 15.4507C65.1802 15.4619 65.2307 15.5087 65.2862 15.599L61.1138 18.161C61.5983 18.9499 62.2974 19.48 62.9821 19.8395L65.2579 15.5045ZM65.2862 15.599C65.3302 15.6708 65.3527 15.734 65.3629 15.7742C65.3724 15.8117 65.368 15.8164 65.368 15.776H60.472C60.472 16.5645 60.645 17.3974 61.1138 18.161L65.2862 15.599ZM65.368 15.776C65.368 15.7485 65.3698 15.732 65.3708 15.7249C65.3718 15.7181 65.3721 15.719 65.3701 15.7259C65.3679 15.7329 65.3643 15.7429 65.3588 15.7541C65.3533 15.7654 65.3476 15.7746 65.3432 15.7808L61.3448 12.9552C60.741 13.8096 60.472 14.7843 60.472 15.776H65.368ZM65.3432 15.7808C65.3437 15.7801 65.3439 15.7799 65.3443 15.7795C65.3448 15.779 65.3475 15.7761 65.3541 15.7711C65.3664 15.7615 65.4025 15.736 65.478 15.7042L63.578 11.1918C62.7027 11.5603 61.9229 12.1371 61.3448 12.9552L65.3432 15.7808ZM65.498 15.6957C65.6328 15.6375 65.8859 15.568 66.32 15.568L66.32 10.672C65.3781 10.672 64.4365 10.8212 63.558 11.2003L65.498 15.6957ZM66.32 15.568C66.7417 15.568 67.0167 15.6333 67.1908 15.7033L69.0172 11.1607C68.1566 10.8146 67.2423 10.672 66.32 10.672L66.32 15.568ZM67.1988 15.7065C67.3907 15.7829 67.4598 15.8542 67.4874 15.8872L71.2486 12.7528C70.6362 12.0178 69.8626 11.4971 69.0092 11.1574L67.1988 15.7065ZM67.4874 15.8872C67.5039 15.907 67.524 15.9311 67.5371 16.0217L72.3829 15.3223C72.2467 14.3782 71.8721 13.5009 71.2486 12.7528L67.4874 15.8872ZM69.529 13.2622L67.561 13.6142L68.423 18.4338L70.391 18.0818L69.529 13.2622ZM70.4195 15.7074C70.2889 14.7065 69.7882 13.8093 68.9451 13.1849L66.0309 17.1191C65.9241 17.04 65.8053 16.919 65.7105 16.755C65.6167 16.5927 65.5779 16.4429 65.5645 16.3406L70.4195 15.7074ZM68.9627 13.198C68.1806 12.6077 67.2862 12.3926 66.4893 12.3478L66.2147 17.2362C66.3672 17.2448 66.2301 17.2696 66.0133 17.106L68.9627 13.198ZM66.4958 12.3482C65.7446 12.304 64.8401 12.3979 64.0024 12.8973L66.5096 17.1027C66.368 17.1871 66.2511 17.2184 66.1944 17.2291C66.1415 17.2392 66.14 17.2318 66.2082 17.2358L66.4958 12.3482ZM64.0327 12.8795C63.0818 13.4281 62.392 14.4186 62.392 15.68H67.288C67.288 15.9358 67.2222 16.257 67.0323 16.5675C66.8486 16.8678 66.6226 17.0378 66.4793 17.1205L64.0327 12.8795ZM62.392 15.68C62.392 16.4614 62.6813 17.2119 63.2372 17.7943L66.7788 14.4137C66.9256 14.5675 67.0622 14.7668 67.1579 15.0082C67.2532 15.2488 67.288 15.4811 67.288 15.68H62.392ZM63.2372 17.7943C63.7859 18.3691 64.5083 18.6399 64.8729 18.7672L66.4871 14.1448C66.3904 14.1111 66.369 14.0973 66.3959 14.1114C66.4115 14.1196 66.4547 14.1431 66.5147 14.185C66.5729 14.2256 66.6698 14.2995 66.7788 14.4137L63.2372 17.7943ZM64.8842 18.7711C65.3229 18.9219 65.9079 19.0856 66.5974 19.2607L67.8026 14.5153C67.1481 14.3491 66.7197 14.2248 66.4758 14.1409L64.8842 18.7711ZM66.5933 19.2597C67.1692 19.407 67.4967 19.5453 67.6544 19.6334L70.0416 15.3586C69.378 14.9881 68.6068 14.721 67.8067 14.5163L66.5933 19.2597ZM67.6874 19.6514C67.752 19.6862 67.7634 19.701 67.7445 19.684C67.7234 19.6649 67.6735 19.6141 67.6229 19.5263L71.8651 17.0817C71.3977 16.2706 70.707 15.7166 70.0086 15.3406L67.6874 19.6514ZM67.6385 19.553C67.6 19.488 67.5827 19.4348 67.5761 19.408C67.5702 19.3836 67.576 19.3931 67.576 19.448H72.472C72.472 18.6588 72.3057 17.8242 71.8495 17.055L67.6385 19.553ZM67.576 19.448C67.576 19.5164 67.5697 19.5568 67.5661 19.5746C67.5626 19.5915 67.5609 19.5911 67.5661 19.5801C67.5714 19.5686 67.5785 19.5577 67.5841 19.5508C67.5892 19.5444 67.5857 19.5506 67.5646 19.5671L70.5794 23.4249C71.8599 22.4242 72.472 21.002 72.472 19.448H67.576ZM67.5567 19.5733C67.5002 19.6178 67.2325 19.7919 66.456 19.7919V24.688C67.9089 24.688 69.3852 24.3662 70.5873 23.4187L67.5567 19.5733ZM76.8402 22L77.29 24.4064L79.2883 24.0329L79.2883 22H76.8402ZM75.1602 22.136L75.2315 19.689L75.2199 19.6886L75.2082 19.6884L75.1602 22.136ZM73.6962 21.84L72.702 24.0771L72.7136 24.0822L72.7252 24.0872L73.6962 21.84ZM72.7122 20.936L70.5479 22.08L70.5554 22.0942L70.5631 22.1083L72.7122 20.936ZM72.4002 19.792L74.8474 19.725L72.4002 19.792ZM72.3842 10.96V8.51195H69.9362V10.96H72.3842ZM74.3042 10.96H76.7523V8.51195H74.3042V10.96ZM74.3122 19.272L71.8647 19.3219L71.8652 19.3469L71.8662 19.3718L74.3122 19.272ZM74.4802 19.912L76.5794 18.6525L76.5735 18.6426L76.5675 18.6327L74.4802 19.912ZM75.4002 20.448L75.6163 18.0095L75.6163 18.0095L75.4002 20.448ZM76.8402 20.384H79.2883V17.5455L76.4806 17.9625L76.8402 20.384ZM70.8162 14.872H68.3682V17.32H70.8162V14.872ZM70.8162 13.36V10.912H68.3682V13.36H70.8162ZM76.8402 13.36H79.2883V10.912H76.8402V13.36ZM76.8402 14.872V17.32H79.2883V14.872H76.8402ZM76.3905 19.5936C75.9819 19.67 75.5967 19.6996 75.2315 19.689L75.089 24.583C75.8225 24.6044 76.5573 24.5433 77.29 24.4064L76.3905 19.5936ZM75.2082 19.6884C74.9329 19.683 74.7656 19.6353 74.6673 19.5928L72.7252 24.0872C73.4909 24.4181 74.2996 24.5676 75.1123 24.5836L75.2082 19.6884ZM74.6905 19.6029C74.7023 19.6082 74.7391 19.6274 74.7824 19.6672C74.826 19.7073 74.8513 19.7452 74.8614 19.7637L70.5631 22.1083C71.0476 22.9965 71.7842 23.6691 72.702 24.0771L74.6905 19.6029ZM74.8766 19.792C74.8562 19.7534 74.8497 19.7318 74.848 19.7259C74.8466 19.7207 74.8473 19.7217 74.8474 19.725L69.9531 19.859C69.9749 20.6553 70.1899 21.4027 70.5479 22.08L74.8766 19.792ZM74.8474 19.725C74.8375 19.3628 74.8323 18.9457 74.8323 18.472H69.9362C69.9362 18.9796 69.9417 19.4425 69.9531 19.859L74.8474 19.725ZM74.8323 18.472V10.96H69.9362V18.472H74.8323ZM72.3842 13.408H74.3042V8.51195H72.3842V13.408ZM71.8562 10.96L71.8562 18.36H76.7523L76.7523 10.96H71.8562ZM71.8562 18.36C71.8562 18.7183 71.859 19.0396 71.8647 19.3219L76.7598 19.222C76.7549 18.9817 76.7523 18.695 76.7523 18.36H71.8562ZM71.8662 19.3718C71.8882 19.9107 72.0105 20.567 72.393 21.1913L76.5675 18.6327C76.7474 18.9263 76.7576 19.1559 76.7583 19.1722L71.8662 19.3718ZM72.3811 21.1715C73.0342 22.26 74.1025 22.7906 75.1842 22.8865L75.6163 18.0095C75.6962 18.0166 75.8751 18.0475 76.0866 18.1708C76.3082 18.2999 76.4745 18.4776 76.5794 18.6525L72.3811 21.1715ZM75.1842 22.8865C75.8431 22.9449 76.5221 22.9061 77.1999 22.8055L76.4806 17.9625C76.0811 18.0218 75.8001 18.0258 75.6163 18.0095L75.1842 22.8865ZM74.3922 20.384V22H79.2883V20.384H74.3922ZM73.2643 14.872V13.36H68.3682V14.872H73.2643ZM70.8162 15.808H76.8402V10.912H70.8162V15.808ZM74.3922 13.36V14.872H79.2883V13.36H74.3922ZM76.8402 12.424H70.8162V17.32H76.8402V12.424Z" fill="black"/>
</g>
<g filter="url(#filter1_d_1118_3793)">
<path d="M45.7546 81L45.7546 35.0083L34.8999 41.6819V29.6212L45.7546 23.1083L56.9309 23.1083L56.9309 81H45.7546Z" fill="#94E95D"/>
<path d="M45.7546 81H43.3066V83.448H45.7546V81ZM45.7546 35.0083H48.2027V30.6295L44.4725 32.9229L45.7546 35.0083ZM34.8999 41.6819H32.4519V46.0607L36.1821 43.7673L34.8999 41.6819ZM34.8999 29.6212L33.6404 27.522L32.4519 28.2351V29.6212L34.8999 29.6212ZM45.7546 23.1083V20.6603H45.0766L44.4951 21.0092L45.7546 23.1083ZM56.9309 23.1083H59.379V20.6603H56.9309V23.1083ZM56.9309 81V83.448H59.379V81H56.9309ZM48.2027 81L48.2027 35.0083H43.3066L43.3066 81H48.2027ZM44.4725 32.9229L33.6178 39.5965L36.1821 43.7673L47.0368 37.0937L44.4725 32.9229ZM37.348 41.6819V29.6212L32.4519 29.6212V41.6819H37.348ZM36.1595 31.7203L47.0141 25.2075L44.4951 21.0092L33.6404 27.522L36.1595 31.7203ZM45.7546 25.5564L56.9309 25.5564L56.9309 20.6603L45.7546 20.6603V25.5564ZM54.4829 23.1083L54.4829 81H59.379L59.379 23.1083L54.4829 23.1083ZM56.9309 78.5519H45.7546L45.7546 83.448H56.9309V78.5519Z" fill="black"/>
</g>
</g>
<defs>
<filter id="filter0_d_1118_3793" x="62.64" y="10.96" width="17.6664" height="14.7462" filterUnits="userSpaceOnUse" color-interpolation-filters="sRGB">
<feFlood flood-opacity="0" result="BackgroundImageFix"/>
<feColorMatrix in="SourceAlpha" type="matrix" values="0 0 0 0 0 0 0 0 0 0 0 0 0 0 0 0 0 0 127 0" result="hardAlpha"/>
<feOffset dx="3.4662" dy="3.4662"/>
<feComposite in2="hardAlpha" operator="out"/>
<feColorMatrix type="matrix" values="0 0 0 0 0 0 0 0 0 0 0 0 0 0 0 0 0 0 1 0"/>
<feBlend mode="normal" in2="BackgroundImageFix" result="effect1_dropShadow_1118_3793"/>
<feBlend mode="normal" in="SourceGraphic" in2="effect1_dropShadow_1118_3793" result="shape"/>
</filter>
<filter id="filter1_d_1118_3793" x="34.8999" y="23.1083" width="25.4972" height="61.3579" filterUnits="userSpaceOnUse" color-interpolation-filters="sRGB">
<feFlood flood-opacity="0" result="BackgroundImageFix"/>
<feColorMatrix in="SourceAlpha" type="matrix" values="0 0 0 0 0 0 0 0 0 0 0 0 0 0 0 0 0 0 127 0" result="hardAlpha"/>
<feOffset dx="3.4662" dy="3.4662"/>
<feComposite in2="hardAlpha" operator="out"/>
<feColorMatrix type="matrix" values="0 0 0 0 0 0 0 0 0 0 0 0 0 0 0 0 0 0 1 0"/>
<feBlend mode="normal" in2="BackgroundImageFix" result="effect1_dropShadow_1118_3793"/>
<feBlend mode="normal" in="SourceGraphic" in2="effect1_dropShadow_1118_3793" result="shape"/>
</filter>
<clipPath id="clip0_1118_3793">
<rect width="100" height="100" fill="white"/>
</clipPath>
</defs>
</svg>
