<svg width="100" height="100" viewBox="0 0 100 100" fill="none" xmlns="http://www.w3.org/2000/svg">
<g clip-path="url(#clip0_1118_3793)">
<g filter="url(#filter0_d_1118_3793)">
<path d="M72.096 22V17.84C72.096 17.568 72.0773 17.2667 72.04 16.936C72.0027 16.6053 71.9147 16.288 71.776 15.984C71.6427 15.6747 71.44 15.4213 71.168 15.224C70.9013 15.0267 70.5387 14.928 70.08 14.928C69.8347 14.928 69.592 14.968 69.352 15.048C69.112 15.128 68.8933 15.2667 68.696 15.464C68.504 15.656 68.3493 15.9227 68.232 16.264C68.1147 16.6 68.056 17.032 68.056 17.56L66.912 17.072C66.912 16.336 67.0533 15.6693 67.336 15.072C67.624 14.4747 68.0453 14 68.6 13.648C69.1547 13.2907 69.8373 13.112 70.648 13.112C71.288 13.112 71.816 13.2187 72.232 13.432C72.648 13.6453 72.9787 13.9173 73.224 14.248C73.4693 14.5787 73.6507 14.9307 73.768 15.304C73.8853 15.6773 73.96 16.032 73.992 16.368C74.0293 16.6987 74.048 16.968 74.048 17.176L74.048 22H72.096ZM66.104 22V13.36H67.824V16.04H68.056V22H66.104ZM79.459 22.24C78.6643 22.24 77.971 22.04 77.379 21.64C76.787 21.24 76.3283 20.696 76.003 20.008C75.6777 19.32 75.515 18.544 75.515 17.68C75.515 16.8053 75.6777 16.0267 76.003 15.344C76.3337 14.656 76.8003 14.1147 77.403 13.72C78.0057 13.32 78.715 13.12 79.531 13.12C80.3523 13.12 81.0403 13.32 81.595 13.72C82.155 14.1147 82.579 14.656 82.867 15.344C83.155 16.032 83.299 16.8107 83.299 17.68C83.299 18.5387 83.155 19.3147 82.867 20.008C82.579 20.696 82.1497 21.24 81.579 21.64C81.0083 22.04 80.3017 22.24 79.459 22.24ZM79.755 20.512C80.2723 20.512 80.6883 20.3947 81.003 20.16C81.323 19.92 81.555 19.5867 81.699 19.16C81.8483 18.7333 81.923 18.24 81.923 17.68C81.923 17.1147 81.8483 16.6213 81.699 16.2C81.555 15.7733 81.3283 15.4427 81.019 15.208C80.7097 14.968 80.3097 14.848 79.819 14.848C79.3017 14.848 78.875 14.976 78.539 15.232C78.203 15.4827 77.955 15.824 77.795 16.256C77.635 16.6827 77.555 17.1573 77.555 17.68C77.555 18.208 77.6323 18.688 77.787 19.12C77.947 19.5467 78.1897 19.8853 78.515 20.136C78.8403 20.3867 79.2537 20.512 79.755 20.512ZM81.923 22V15.936H81.683V10.48H83.627V22H81.923Z" fill="#94E95D"/>
<path d="M72.096 22H69.648V24.448H72.096V22ZM72.04 16.936L74.4726 16.6614L74.4726 16.6613L72.04 16.936ZM71.776 15.984L69.5279 16.953L69.5381 16.9766L69.5487 16.9999L71.776 15.984ZM71.168 15.224L69.7118 17.1918L69.7211 17.1987L69.7304 17.2055L71.168 15.224ZM69.352 15.048L70.1261 17.3704L70.1261 17.3704L69.352 15.048ZM68.696 15.464L66.965 13.733L66.965 13.733L68.696 15.464ZM68.232 16.264L70.5432 17.0711L70.5471 17.0598L68.232 16.264ZM68.056 17.56L67.0955 19.8117L70.504 21.2657V17.56H68.056ZM66.912 17.072H64.464V18.6892L65.9515 19.3237L66.912 17.072ZM67.336 15.072L65.1309 14.0088L65.127 14.0168L65.1232 14.0249L67.336 15.072ZM68.6 13.648L69.9117 15.715L69.9188 15.7105L69.9258 15.706L68.6 13.648ZM72.232 13.432L73.3491 11.2537L73.3491 11.2537L72.232 13.432ZM73.224 14.248L71.258 15.7067L71.258 15.7067L73.224 14.248ZM73.768 15.304L76.1034 14.57L76.1034 14.57L73.768 15.304ZM73.992 16.368L71.555 16.6001L71.557 16.6214L71.5594 16.6426L73.992 16.368ZM74.048 22V24.448H76.496V22H74.048ZM66.104 22H63.656V24.448H66.104V22ZM66.104 13.36L66.104 10.912H63.656V13.36H66.104ZM67.824 13.36H70.272V10.912H67.824L67.824 13.36ZM67.824 16.04H65.376V18.488H67.824V16.04ZM68.056 16.04H70.504L70.504 13.5919H68.056L68.056 16.04ZM68.056 22V24.448H70.504V22H68.056ZM74.544 22L74.544 17.84H69.648V22H74.544ZM74.544 17.84C74.544 17.4587 74.518 17.0639 74.4726 16.6614L69.6074 17.2106C69.6366 17.4694 69.648 17.6773 69.648 17.84H74.544ZM74.4726 16.6613C74.4062 16.0732 74.2486 15.5058 74.0033 14.968L69.5487 16.9999C69.5808 17.0702 69.5991 17.1374 69.6074 17.2106L74.4726 16.6613ZM74.0241 15.015C73.717 14.3024 73.2348 13.699 72.6056 13.2425L69.7304 17.2055C69.6953 17.18 69.6529 17.142 69.6124 17.0913C69.5719 17.0406 69.5445 16.9916 69.5279 16.953L74.0241 15.015ZM72.6242 13.2562C71.8017 12.6475 70.8666 12.4799 70.08 12.4799L70.08 17.376C70.2107 17.376 70.001 17.4058 69.7118 17.1918L72.6242 13.2562ZM70.08 12.4799C69.5634 12.4799 69.0596 12.565 68.5779 12.7256L70.1261 17.3704C70.127 17.3701 70.122 17.3718 70.1122 17.3734C70.1022 17.3751 70.091 17.376 70.08 17.376L70.08 12.4799ZM68.5779 12.7256C67.9414 12.9377 67.4029 13.295 66.965 13.733L70.427 17.195C70.3838 17.2383 70.2826 17.3183 70.1261 17.3704L68.5779 12.7256ZM66.965 13.733C66.4378 14.2601 66.1172 14.8855 65.9169 15.4682L70.5471 17.0598C70.5626 17.0146 70.5681 17.0112 70.5536 17.0362C70.5386 17.0622 70.4998 17.1222 70.427 17.195L66.965 13.733ZM65.9208 15.4569C65.6804 16.1455 65.608 16.8771 65.608 17.56H70.504C70.504 17.3841 70.514 17.2563 70.5258 17.1694C70.5378 17.0813 70.5491 17.0541 70.5432 17.0711L65.9208 15.4569ZM69.0165 15.3083L67.8725 14.8203L65.9515 19.3237L67.0955 19.8117L69.0165 15.3083ZM69.36 17.072C69.36 16.6566 69.4379 16.3535 69.5488 16.1191L65.1232 14.0249C64.6688 14.9851 64.464 16.0154 64.464 17.072H69.36ZM69.5411 16.1352C69.6328 15.9451 69.7465 15.8198 69.9117 15.715L67.2883 11.581C66.3442 12.1802 65.6152 13.0042 65.1309 14.0088L69.5411 16.1352ZM69.9258 15.706C70.0033 15.656 70.1996 15.56 70.648 15.56L70.648 10.6639C69.475 10.6639 68.306 10.9253 67.2742 11.59L69.9258 15.706ZM70.648 15.56C71.0355 15.56 71.1481 15.6274 71.1149 15.6103L73.3491 11.2537C72.4839 10.81 71.5405 10.6639 70.648 10.6639L70.648 15.56ZM71.1149 15.6103C71.1811 15.6443 71.2185 15.6716 71.2368 15.6866C71.2461 15.6942 71.2515 15.6996 71.2543 15.7024C71.2569 15.7052 71.2579 15.7066 71.258 15.7067L75.19 12.7893C74.6921 12.1182 74.054 11.6152 73.3491 11.2537L71.1149 15.6103ZM71.258 15.7067C71.3492 15.8296 71.4013 15.9385 71.4326 16.038L76.1034 14.57C75.9 13.9229 75.5895 13.3277 75.19 12.7893L71.258 15.7067ZM71.4326 16.038C71.5065 16.2732 71.5415 16.4589 71.555 16.6001L76.429 16.1359C76.3785 15.6051 76.2641 15.0814 76.1034 14.57L71.4326 16.038ZM71.5594 16.6426C71.5918 16.9292 71.6 17.0973 71.6 17.176H76.496C76.496 16.8387 76.4669 16.4682 76.4246 16.0934L71.5594 16.6426ZM71.6 17.176V22H76.496L76.496 17.176H71.6ZM74.048 19.5519H72.096V24.448H74.048V19.5519ZM68.552 22L68.552 13.36H63.656V22H68.552ZM66.104 15.808H67.824L67.824 10.912H66.104L66.104 15.808ZM65.376 13.36V16.04H70.272V13.36H65.376ZM67.824 18.488H68.056L68.056 13.5919H67.824V18.488ZM65.608 16.04V22H70.504V16.04H65.608ZM68.056 19.5519H66.104V24.448H68.056V19.5519ZM77.379 21.64L78.7496 19.6116L78.7496 19.6116L77.379 21.64ZM76.003 20.008L73.7899 21.0545L73.7899 21.0545L76.003 20.008ZM76.003 15.344L73.7966 14.2835L73.7931 14.2908L76.003 15.344ZM77.403 13.72L78.7442 15.768L78.7505 15.7638L78.7568 15.7597L77.403 13.72ZM81.595 13.72L80.1631 15.7056L80.1739 15.7134L80.1847 15.721L81.595 13.72ZM82.867 20.008L85.1252 20.9533L85.1278 20.9471L82.867 20.008ZM81.579 21.64L82.9841 23.6446L82.9841 23.6446L81.579 21.64ZM81.003 20.16L82.4665 22.1224L82.4718 22.1184L81.003 20.16ZM81.699 19.16L79.3884 18.3513L79.3839 18.3642L79.3795 18.3772L81.699 19.16ZM81.699 16.2L79.3795 16.9828L79.3854 17.0004L79.3916 17.0178L81.699 16.2ZM81.019 15.208L79.5184 17.1422L79.5288 17.1503L79.5394 17.1583L81.019 15.208ZM78.539 15.232L80.0028 17.1942L80.0128 17.1868L80.0226 17.1793L78.539 15.232ZM77.795 16.256L80.0872 17.1156L80.0907 17.1062L77.795 16.256ZM77.787 19.12L75.4822 19.9452L75.4884 19.9624L75.4948 19.9796L77.787 19.12ZM78.515 20.136L77.0209 22.0752L77.0209 22.0752L78.515 20.136ZM81.923 22H79.475V24.448H81.923L81.923 22ZM81.923 15.936H84.371V13.488H81.923V15.936ZM81.683 15.936H79.235L79.235 18.384H81.683V15.936ZM81.683 10.48V8.03195H79.235V10.48H81.683ZM83.627 10.48H86.075V8.03195H83.627V10.48ZM83.627 22L83.627 24.448H86.075L86.075 22H83.627ZM79.459 19.7919C79.0958 19.7919 78.892 19.7078 78.7496 19.6116L76.0084 23.6684C77.05 24.3722 78.2329 24.688 79.459 24.688V19.7919ZM78.7496 19.6116C78.5452 19.4735 78.3664 19.2794 78.2161 18.9615L73.7899 21.0545C74.2902 22.1126 75.0287 23.0065 76.0084 23.6684L78.7496 19.6116ZM78.2161 18.9615C78.0652 18.6423 77.963 18.2312 77.963 17.68H73.067C73.067 18.8568 73.2902 19.9977 73.7899 21.0545L78.2161 18.9615ZM77.963 17.68C77.963 17.1128 78.0671 16.7031 78.2129 16.3972L73.7931 14.2908C73.2882 15.3503 73.067 16.4979 73.067 17.68H77.963ZM78.2094 16.4045C78.359 16.0933 78.537 15.9037 78.7442 15.768L76.0618 11.672C75.0637 12.3257 74.3084 13.2187 73.7966 14.2835L78.2094 16.4045ZM78.7568 15.7597C78.9081 15.6592 79.1328 15.568 79.531 15.568V10.672C78.2972 10.672 77.1032 10.9808 76.0492 11.6803L78.7568 15.7597ZM79.531 15.568C79.9441 15.568 80.1036 15.6627 80.1631 15.7056L83.0269 11.7344C81.977 10.9773 80.7606 10.672 79.531 10.672V15.568ZM80.1847 15.721C80.3353 15.8271 80.4822 15.9868 80.6088 16.2893L85.1252 14.3987C84.6758 13.3252 83.9747 12.4022 83.0053 11.719L80.1847 15.721ZM80.6088 16.2893C80.7525 16.6325 80.851 17.0822 80.851 17.68H85.747C85.747 16.5392 85.5575 15.4315 85.1252 14.3987L80.6088 16.2893ZM80.851 17.68C80.851 18.2623 80.7541 18.7129 80.6062 19.0689L85.1278 20.9471C85.5559 19.9164 85.747 18.815 85.747 17.68H80.851ZM80.6088 19.0627C80.4863 19.3554 80.339 19.5196 80.1739 19.6354L82.9841 23.6446C83.9603 22.9604 84.6717 22.0366 85.1252 20.9533L80.6088 19.0627ZM80.1739 19.6354C80.0947 19.6909 79.9059 19.7919 79.459 19.7919V24.688C80.6974 24.688 81.922 24.3891 82.9841 23.6446L80.1739 19.6354ZM79.755 22.96C80.6327 22.96 81.6123 22.7595 82.4665 22.1224L79.5395 18.1976C79.6453 18.1187 79.7394 18.0823 79.7905 18.0679C79.8363 18.055 79.8317 18.0639 79.755 18.0639V22.96ZM82.4718 22.1184C83.2364 21.545 83.7369 20.7771 84.0185 19.9428L79.3795 18.3772C79.3734 18.3952 79.3783 18.3738 79.4077 18.3315C79.4385 18.2872 79.4821 18.2406 79.5342 18.2016L82.4718 22.1184ZM84.0096 19.9687C84.2687 19.2285 84.371 18.4522 84.371 17.68H79.475C79.475 18.0278 79.428 18.2382 79.3884 18.3513L84.0096 19.9687ZM84.371 17.68C84.371 16.9065 84.2698 16.1252 84.0064 15.3822L79.3916 17.0178C79.4269 17.1175 79.475 17.3228 79.475 17.68H84.371ZM84.0185 15.4172C83.7435 14.6023 83.258 13.8338 82.4986 13.2577L79.5394 17.1583C79.4783 17.1119 79.432 17.0601 79.4018 17.0161C79.3733 16.9746 79.3708 16.9569 79.3795 16.9828L84.0185 15.4172ZM82.5196 13.2738C81.682 12.624 80.7129 12.3999 79.819 12.3999V17.296C79.8666 17.296 79.8476 17.302 79.7836 17.2828C79.7142 17.262 79.6174 17.219 79.5184 17.1422L82.5196 13.2738ZM79.819 12.3999C78.8889 12.3999 77.9064 12.6363 77.0554 13.2847L80.0226 17.1793C79.944 17.2392 79.8674 17.2729 79.8144 17.2888C79.7662 17.3033 79.7611 17.296 79.819 17.296V12.3999ZM77.0752 13.2698C76.3232 13.8308 75.8066 14.5761 75.4993 15.4058L80.0907 17.1062C80.1001 17.0809 80.1004 17.0889 80.0815 17.1149C80.0616 17.1424 80.0337 17.1711 80.0028 17.1942L77.0752 13.2698ZM75.5028 15.3964C75.2258 16.1352 75.107 16.9064 75.107 17.68H80.003C80.003 17.4083 80.0442 17.2301 80.0872 17.1156L75.5028 15.3964ZM75.107 17.68C75.107 18.4475 75.2196 19.2118 75.4822 19.9452L80.0918 18.2948C80.045 18.1642 80.003 17.9685 80.003 17.68H75.107ZM75.4948 19.9796C75.7969 20.7852 76.2953 21.5162 77.0209 22.0752L80.0091 18.1968C80.0227 18.2073 80.0364 18.2194 80.0491 18.2327C80.0619 18.2459 80.0718 18.2582 80.0789 18.2681C80.0939 18.289 80.0907 18.2912 80.0792 18.2604L75.4948 19.9796ZM77.0209 22.0752C77.8622 22.7234 78.8355 22.96 79.755 22.96V18.0639C79.7073 18.0639 79.7222 18.0579 79.7794 18.0753C79.8414 18.0941 79.9252 18.1321 80.0091 18.1968L77.0209 22.0752ZM84.371 22V15.936H79.475L79.475 22H84.371ZM81.923 13.488H81.683V18.384H81.923V13.488ZM84.131 15.936V10.48H79.235V15.936H84.131ZM81.683 12.928H83.627V8.03195H81.683V12.928ZM81.179 10.48V22H86.075V10.48H81.179ZM83.627 19.5519H81.923L81.923 24.448H83.627L83.627 19.5519Z" fill="black"/>
</g>
<g filter="url(#filter1_d_1118_3793)">
<path d="M27.5831 80.9196V71.4318L51.8654 49.8832C53.6879 48.2751 54.9744 46.7608 55.7249 45.3403C56.4753 43.9199 56.8505 42.5932 56.8505 41.3603C56.8505 39.5914 56.4887 38.0235 55.7651 36.6566C55.0414 35.2629 54.023 34.1774 52.7097 33.4002C51.3964 32.5961 49.8553 32.1941 48.0864 32.1941C46.2371 32.1941 44.6022 32.6229 43.1817 33.4806C41.788 34.3115 40.7025 35.4237 39.9253 36.8174C39.148 38.1843 38.7862 39.6718 38.8398 41.2799H27.5831C27.5831 37.3132 28.4541 33.8826 30.1963 30.988C31.9384 28.0935 34.3639 25.8555 37.4729 24.2742C40.5819 22.6929 44.2001 21.9023 48.3276 21.9023C52.1066 21.9023 55.4836 22.7331 58.4586 24.3948C61.4604 26.0297 63.819 28.3213 65.5343 31.2695C67.2496 34.2176 68.1072 37.6349 68.1072 41.5211C68.1072 44.3889 67.7052 46.7742 66.9012 48.6772C66.0971 50.5533 64.9044 52.2954 63.3231 53.9035C61.7418 55.4848 59.7987 57.2805 57.4938 59.2906L41.8148 73.0399L40.9303 70.6277L68.1072 70.6277V80.9196L27.5831 80.9196Z" fill="#94E95D"/>
<path d="M27.5831 80.9196H25.135V83.3676H27.5831V80.9196ZM27.5831 71.4318L25.9582 69.6008L25.135 70.3312V71.4318H27.5831ZM51.8654 49.8832L50.2457 48.0476L50.2405 48.0522L51.8654 49.8832ZM55.7249 45.3403L53.5603 44.1968L53.5603 44.1968L55.7249 45.3403ZM55.7651 36.6566L53.5924 37.7847L53.5969 37.7934L53.6015 37.802L55.7651 36.6566ZM52.7097 33.4002L51.4314 35.488L51.4471 35.4976L51.4628 35.5069L52.7097 33.4002ZM43.1817 33.4806L44.4353 35.5834L44.447 35.5763L43.1817 33.4806ZM39.9253 36.8174L42.0533 38.0275L42.0584 38.0187L42.0633 38.0098L39.9253 36.8174ZM38.8398 41.2799V43.7279H41.3708L41.2865 41.1983L38.8398 41.2799ZM27.5831 41.2799H25.135V43.7279H27.5831V41.2799ZM30.1963 30.988L28.0988 29.7257L28.0988 29.7257L30.1963 30.988ZM37.4729 24.2742L38.5827 26.4562L38.5827 26.4562L37.4729 24.2742ZM58.4586 24.3948L57.2649 26.5321L57.2763 26.5384L57.2877 26.5447L58.4586 24.3948ZM65.5343 31.2695L67.6502 30.0384L67.6502 30.0384L65.5343 31.2695ZM66.9012 48.6772L69.1513 49.6415L69.1562 49.63L66.9012 48.6772ZM63.3231 53.9035L65.0542 55.6345L65.0614 55.6272L65.0687 55.6199L63.3231 53.9035ZM57.4938 59.2906L55.8848 57.4456L55.8797 57.45L57.4938 59.2906ZM41.8148 73.0399L39.5164 73.8826L40.7452 77.2339L43.4288 74.8805L41.8148 73.0399ZM40.9303 70.6277V68.1797H37.4253L38.6319 71.4705L40.9303 70.6277ZM68.1072 70.6277H70.5553V68.1797H68.1072V70.6277ZM68.1072 80.9196V83.3676H70.5553V80.9196H68.1072ZM30.0311 80.9196V71.4318H25.135V80.9196H30.0311ZM29.208 73.2628L53.4903 51.7143L50.2405 48.0522L25.9582 69.6008L29.208 73.2628ZM53.4851 51.7189C55.4273 50.0052 56.9488 48.2644 57.8894 46.4839L53.5603 44.1968C53.0001 45.2573 51.9486 46.5451 50.2457 48.0476L53.4851 51.7189ZM57.8894 46.4839C58.7714 44.8143 59.2986 43.0942 59.2986 41.3603H54.4025C54.4025 42.0922 54.1792 43.0254 53.5603 44.1968L57.8894 46.4839ZM59.2986 41.3603C59.2986 39.25 58.8644 37.2788 57.9286 35.5112L53.6015 37.802C54.113 38.7682 54.4025 39.9328 54.4025 41.3603H59.2986ZM57.9377 35.5285C57.0095 33.7409 55.6757 32.311 53.9565 31.2935L51.4628 35.5069C52.3702 36.0439 53.0733 36.785 53.5924 37.7847L57.9377 35.5285ZM53.9879 31.3124C52.2354 30.2394 50.238 29.7461 48.0864 29.7461V34.6422C49.4726 34.6422 50.5573 34.9529 51.4314 35.488L53.9879 31.3124ZM48.0864 29.7461C45.8435 29.7461 43.7612 30.271 41.9163 31.3849L44.447 35.5763C45.4431 34.9748 46.6306 34.6422 48.0864 34.6422V29.7461ZM41.9281 31.3779C40.1712 32.4252 38.7778 33.8488 37.7872 35.625L42.0633 38.0098C42.6272 36.9986 43.4048 36.1977 44.4352 35.5833L41.9281 31.3779ZM37.7972 35.6073C36.7911 37.3766 36.3248 39.3127 36.3931 41.3614L41.2865 41.1983C41.2476 40.0309 41.5049 38.992 42.0533 38.0275L37.7972 35.6073ZM38.8398 38.8318H27.5831V43.7279H38.8398V38.8318ZM30.0311 41.2799C30.0311 37.6797 30.8183 34.7019 32.2937 32.2504L28.0988 29.7257C26.09 33.0633 25.135 36.9468 25.135 41.2799H30.0311ZM32.2937 32.2504C33.7913 29.7621 35.8686 27.8367 38.5827 26.4562L36.3631 22.0922C32.8592 23.8744 30.0854 26.4248 28.0988 29.7257L32.2937 32.2504ZM38.5827 26.4562C41.2902 25.0792 44.5155 24.3503 48.3276 24.3503V19.4542C43.8848 19.4542 39.8736 20.3067 36.3631 22.0922L38.5827 26.4562ZM48.3276 24.3503C51.7353 24.3503 54.6933 25.0957 57.2649 26.5321L59.6524 22.2576C56.274 20.3705 52.478 19.4542 48.3276 19.4542V24.3503ZM57.2877 26.5447C59.8973 27.966 61.9286 29.9401 63.4183 32.5006L67.6502 30.0384C65.7093 26.7024 63.0235 24.0935 59.6295 22.245L57.2877 26.5447ZM63.4183 32.5006C64.8872 35.0253 65.6592 38.006 65.6592 41.5211H70.5553C70.5553 37.2637 69.612 33.41 67.6502 30.0384L63.4183 32.5006ZM65.6592 41.5211C65.6592 44.1801 65.2836 46.2157 64.6462 47.7243L69.1562 49.63C70.1268 47.3328 70.5553 44.5977 70.5553 41.5211H65.6592ZM64.6511 47.7128C63.9789 49.2811 62.9678 50.7733 61.5776 52.1871L65.0687 55.6199C66.8411 53.8175 68.2153 51.8254 69.1513 49.6415L64.6511 47.7128ZM61.5921 52.1725C60.0615 53.7031 58.1618 55.4598 55.8848 57.4456L59.1028 61.1356C61.4356 59.1012 63.4222 57.2665 65.0542 55.6345L61.5921 52.1725ZM55.8797 57.45L40.2007 71.1993L43.4288 74.8805L59.1078 61.1312L55.8797 57.45ZM44.1132 72.1971L43.2287 69.785L38.6319 71.4705L39.5164 73.8826L44.1132 72.1971ZM40.9303 73.0758L68.1072 73.0758V68.1797L40.9303 68.1797V73.0758ZM65.6592 70.6277V80.9196L70.5553 80.9196V70.6277L65.6592 70.6277ZM68.1072 78.4715L27.5831 78.4715V83.3676L68.1072 83.3676V78.4715Z" fill="black"/>
</g>
</g>
<defs>
<filter id="filter0_d_1118_3793" x="66.104" y="10.48" width="20.9892" height="15.2262" filterUnits="userSpaceOnUse" color-interpolation-filters="sRGB">
<feFlood flood-opacity="0" result="BackgroundImageFix"/>
<feColorMatrix in="SourceAlpha" type="matrix" values="0 0 0 0 0 0 0 0 0 0 0 0 0 0 0 0 0 0 127 0" result="hardAlpha"/>
<feOffset dx="3.4662" dy="3.4662"/>
<feComposite in2="hardAlpha" operator="out"/>
<feColorMatrix type="matrix" values="0 0 0 0 0 0 0 0 0 0 0 0 0 0 0 0 0 0 1 0"/>
<feBlend mode="normal" in2="BackgroundImageFix" result="effect1_dropShadow_1118_3793"/>
<feBlend mode="normal" in="SourceGraphic" in2="effect1_dropShadow_1118_3793" result="shape"/>
</filter>
<filter id="filter1_d_1118_3793" x="27.5831" y="21.9023" width="43.9904" height="62.4835" filterUnits="userSpaceOnUse" color-interpolation-filters="sRGB">
<feFlood flood-opacity="0" result="BackgroundImageFix"/>
<feColorMatrix in="SourceAlpha" type="matrix" values="0 0 0 0 0 0 0 0 0 0 0 0 0 0 0 0 0 0 127 0" result="hardAlpha"/>
<feOffset dx="3.4662" dy="3.4662"/>
<feComposite in2="hardAlpha" operator="out"/>
<feColorMatrix type="matrix" values="0 0 0 0 0 0 0 0 0 0 0 0 0 0 0 0 0 0 1 0"/>
<feBlend mode="normal" in2="BackgroundImageFix" result="effect1_dropShadow_1118_3793"/>
<feBlend mode="normal" in="SourceGraphic" in2="effect1_dropShadow_1118_3793" result="shape"/>
</filter>
<clipPath id="clip0_1118_3793">
<rect width="100" height="100" fill="white"/>
</clipPath>
</defs>
</svg>
