<svg width="100" height="100" viewBox="0 0 100 100" fill="none" xmlns="http://www.w3.org/2000/svg">
<g clip-path="url(#clip0_1118_3793)">
<g filter="url(#filter0_d_1118_3793)">
<path d="M74.12 22V13.36H75.824V15.464L75.616 15.192C75.7227 14.904 75.864 14.6427 76.04 14.408C76.2213 14.168 76.4373 13.9707 76.688 13.816C76.9013 13.672 77.136 13.56 77.392 13.48C77.6533 13.3947 77.92 13.344 78.192 13.328C78.464 13.3067 78.728 13.3173 78.984 13.36V15.16C78.728 15.0853 78.432 15.0613 78.096 15.088C77.7653 15.1147 77.4667 15.208 77.2 15.368C76.9333 15.512 76.7147 15.696 76.544 15.92C76.3787 16.144 76.256 16.4 76.176 16.688C76.096 16.9707 76.056 17.2773 76.056 17.608V22H74.12ZM83.8184 22.24C83.0237 22.24 82.3304 22.04 81.7384 21.64C81.1464 21.24 80.6877 20.696 80.3624 20.008C80.037 19.32 79.8744 18.544 79.8744 17.68C79.8744 16.8053 80.037 16.0267 80.3624 15.344C80.693 14.656 81.1597 14.1147 81.7624 13.72C82.365 13.32 83.0744 13.12 83.8904 13.12C84.7117 13.12 85.3997 13.32 85.9544 13.72C86.5144 14.1147 86.9384 14.656 87.2264 15.344C87.5144 16.032 87.6584 16.8107 87.6584 17.68C87.6584 18.5387 87.5144 19.3147 87.2264 20.008C86.9384 20.696 86.509 21.24 85.9384 21.64C85.3677 22.04 84.661 22.24 83.8184 22.24ZM84.1144 20.512C84.6317 20.512 85.0477 20.3947 85.3624 20.16C85.6824 19.92 85.9144 19.5867 86.0584 19.16C86.2077 18.7333 86.2824 18.24 86.2824 17.68C86.2824 17.1147 86.2077 16.6213 86.0584 16.2C85.9144 15.7733 85.6877 15.4427 85.3784 15.208C85.069 14.968 84.669 14.848 84.1784 14.848C83.661 14.848 83.2344 14.976 82.8984 15.232C82.5624 15.4827 82.3144 15.824 82.1544 16.256C81.9944 16.6827 81.9144 17.1573 81.9144 17.68C81.9144 18.208 81.9917 18.688 82.1464 19.12C82.3064 19.5467 82.549 19.8853 82.8744 20.136C83.1997 20.3867 83.613 20.512 84.1144 20.512ZM86.2824 22L86.2824 15.936H86.0424V10.48H87.9864L87.9864 22H86.2824Z" fill="#94E95D"/>
<path d="M74.12 22H71.672V24.448H74.12V22ZM74.12 13.36V10.912H71.672V13.36H74.12ZM75.824 13.36H78.272V10.912H75.824L75.824 13.36ZM75.824 15.464L73.8794 16.9511L78.272 22.6953V15.464H75.824ZM75.616 15.192L73.3203 14.3418L72.8517 15.6072L73.6714 16.6791L75.616 15.192ZM76.04 14.408L74.0868 12.9322L74.0816 12.9392L76.04 14.408ZM76.688 13.816L77.9735 15.8994L78.0161 15.8731L78.0576 15.8451L76.688 13.816ZM77.392 13.48L78.1222 15.8166L78.1371 15.812L78.1519 15.8071L77.392 13.48ZM78.192 13.328L78.3358 15.7718L78.3596 15.7704L78.3834 15.7685L78.192 13.328ZM78.984 13.36H81.432V11.2862L79.3865 10.9453L78.984 13.36ZM78.984 15.16L78.2985 17.5101L81.432 18.4241L81.432 15.16H78.984ZM78.096 15.088L77.9023 12.6476L77.8992 12.6479L78.096 15.088ZM77.2 15.368L78.3632 17.522L78.412 17.4957L78.4595 17.4672L77.2 15.368ZM76.544 15.92L74.5967 14.4364L74.5854 14.4512L74.5744 14.4662L76.544 15.92ZM76.176 16.688L78.5316 17.3547L78.5347 17.3432L76.176 16.688ZM76.056 22V24.448H78.504V22H76.056ZM76.568 22V13.36H71.672V22H76.568ZM74.12 15.808H75.824L75.824 10.912H74.12V15.808ZM73.376 13.36V15.464H78.272V13.36H73.376ZM77.7686 13.9769L77.5606 13.7049L73.6714 16.6791L73.8794 16.9511L77.7686 13.9769ZM77.9117 16.0422C77.9402 15.9652 77.9706 15.9139 77.9984 15.8768L74.0816 12.9392C73.7574 13.3714 73.5051 13.8428 73.3203 14.3418L77.9117 16.0422ZM77.9932 15.8838C77.9961 15.8799 77.9949 15.8822 77.9892 15.8874C77.9866 15.8897 77.9837 15.8921 77.9807 15.8944C77.9777 15.8967 77.9752 15.8983 77.9735 15.8994L75.4025 11.7326C74.888 12.0501 74.4471 12.4553 74.0868 12.9322L77.9932 15.8838ZM78.0576 15.8451C78.0657 15.8396 78.0835 15.8287 78.1222 15.8166L76.6618 11.1434C76.1885 11.2913 75.737 11.5044 75.3184 11.7869L78.0576 15.8451ZM78.1519 15.8071C78.2155 15.7864 78.2752 15.7754 78.3358 15.7718L78.0482 10.8842C77.5648 10.9126 77.0912 11.003 76.6321 11.1529L78.1519 15.8071ZM78.3834 15.7685C78.4673 15.762 78.5315 15.7664 78.5815 15.7747L79.3865 10.9453C78.9245 10.8683 78.4607 10.8514 78.0006 10.8874L78.3834 15.7685ZM76.536 13.36L76.536 15.16H81.432V13.36H76.536ZM79.6695 12.8099C79.0641 12.6333 78.4595 12.6034 77.9023 12.6476L78.2897 17.5284C78.3167 17.5262 78.3369 17.5256 78.3508 17.5255C78.3647 17.5255 78.3716 17.526 78.3722 17.526C78.3734 17.5261 78.3464 17.5241 78.2985 17.5101L79.6695 12.8099ZM77.8992 12.6479C77.2185 12.7028 76.5518 12.902 75.9405 13.2688L78.4595 17.4672C78.4254 17.4876 78.3889 17.5038 78.3542 17.5146C78.32 17.5253 78.2977 17.5277 78.2928 17.5281L77.8992 12.6479ZM76.0368 13.2139C75.4878 13.5104 74.9939 13.9151 74.5967 14.4364L78.4913 17.4036C78.466 17.4368 78.4384 17.465 78.4122 17.4871C78.3863 17.5089 78.3679 17.5195 78.3632 17.522L76.0368 13.2139ZM74.5744 14.4662C74.219 14.9476 73.9713 15.4784 73.8173 16.0328L78.5347 17.3432C78.5383 17.3303 78.5396 17.3297 78.5357 17.3378C78.5316 17.3463 78.5244 17.3592 78.5136 17.3738L74.5744 14.4662ZM73.8205 16.0213C73.6719 16.5461 73.608 17.0797 73.608 17.608H78.504C78.504 17.4749 78.5201 17.3952 78.5315 17.3547L73.8205 16.0213ZM73.608 17.608V22H78.504V17.608H73.608ZM76.056 19.5519H74.12V24.448H76.056V19.5519ZM81.7384 21.64L83.1089 19.6116L83.1089 19.6116L81.7384 21.64ZM80.3624 20.008L78.1493 21.0545L78.1493 21.0545L80.3624 20.008ZM80.3624 15.344L78.1559 14.2835L78.1524 14.2908L80.3624 15.344ZM81.7624 13.72L83.1035 15.768L83.1098 15.7638L83.1161 15.7597L81.7624 13.72ZM85.9544 13.72L84.5225 15.7056L84.5333 15.7134L84.5441 15.721L85.9544 13.72ZM87.2264 20.008L89.4846 20.9533L89.4871 20.9471L87.2264 20.008ZM85.9384 21.64L87.3435 23.6446L87.3435 23.6446L85.9384 21.64ZM85.3624 20.16L86.8259 22.1224L86.8312 22.1184L85.3624 20.16ZM86.0584 19.16L83.7478 18.3513L83.7432 18.3642L83.7389 18.3772L86.0584 19.16ZM86.0584 16.2L83.7389 16.9828L83.7448 17.0004L83.751 17.0178L86.0584 16.2ZM85.3784 15.208L83.8777 17.1422L83.8882 17.1503L83.8988 17.1583L85.3784 15.208ZM82.8984 15.232L84.3622 17.1942L84.3721 17.1868L84.382 17.1793L82.8984 15.232ZM82.1544 16.256L84.4466 17.1156L84.45 17.1062L82.1544 16.256ZM82.1464 19.12L79.8416 19.9452L79.8478 19.9624L79.8542 19.9796L82.1464 19.12ZM82.8744 20.136L81.3802 22.0752L81.3802 22.0752L82.8744 20.136ZM86.2824 22H83.8343V24.448H86.2824V22ZM86.2824 15.936H88.7304V13.488H86.2824V15.936ZM86.0424 15.936H83.5943L83.5943 18.384H86.0424L86.0424 15.936ZM86.0424 10.48V8.03195H83.5943V10.48H86.0424ZM87.9864 10.48H90.4344V8.03195H87.9864V10.48ZM87.9864 22V24.448H90.4344L90.4344 22H87.9864ZM83.8184 19.7919C83.4552 19.7919 83.2514 19.7078 83.1089 19.6116L80.3678 23.6684C81.4094 24.3722 82.5922 24.688 83.8184 24.688V19.7919ZM83.1089 19.6116C82.9046 19.4735 82.7258 19.2794 82.5755 18.9615L78.1493 21.0545C78.6496 22.1126 79.3881 23.0065 80.3678 23.6684L83.1089 19.6116ZM82.5755 18.9615C82.4245 18.6423 82.3224 18.2312 82.3224 17.68H77.4263C77.4263 18.8568 77.6495 19.9977 78.1493 21.0545L82.5755 18.9615ZM82.3224 17.68C82.3224 17.1128 82.4265 16.7031 82.5723 16.3972L78.1524 14.2908C77.6476 15.3503 77.4263 16.4979 77.4263 17.68H82.3224ZM82.5688 16.4045C82.7183 16.0933 82.8963 15.9037 83.1035 15.768L80.4212 11.672C79.4231 12.3257 78.6677 13.2187 78.1559 14.2835L82.5688 16.4045ZM83.1161 15.7597C83.2675 15.6592 83.4922 15.568 83.8904 15.568V10.672C82.6565 10.672 81.4626 10.9808 80.4086 11.6803L83.1161 15.7597ZM83.8904 15.568C84.3034 15.568 84.463 15.6627 84.5225 15.7056L87.3863 11.7344C86.3364 10.9773 85.12 10.672 83.8904 10.672V15.568ZM84.5441 15.721C84.6946 15.8271 84.8416 15.9868 84.9682 16.2893L89.4846 14.3987C89.0352 13.3252 88.3341 12.4022 87.3646 11.719L84.5441 15.721ZM84.9682 16.2893C85.1119 16.6325 85.2103 17.0822 85.2103 17.68H90.1064C90.1064 16.5392 89.9169 15.4315 89.4846 14.3987L84.9682 16.2893ZM85.2103 17.68C85.2103 18.2623 85.1135 18.7129 84.9656 19.0689L89.4871 20.9471C89.9153 19.9164 90.1064 18.815 90.1064 17.68H85.2103ZM84.9682 19.0627C84.8457 19.3554 84.6984 19.5196 84.5333 19.6354L87.3435 23.6446C88.3197 22.9604 89.0311 22.0366 89.4846 20.9533L84.9682 19.0627ZM84.5333 19.6354C84.4541 19.6909 84.2653 19.7919 83.8184 19.7919V24.688C85.0568 24.688 86.2814 24.3891 87.3435 23.6446L84.5333 19.6354ZM84.1144 22.96C84.992 22.96 85.9717 22.7595 86.8259 22.1224L83.8989 18.1976C84.0047 18.1187 84.0988 18.0823 84.1498 18.0679C84.1956 18.055 84.191 18.0639 84.1144 18.0639V22.96ZM86.8312 22.1184C87.5958 21.545 88.0963 20.7771 88.3779 19.9428L83.7389 18.3772C83.7328 18.3952 83.7377 18.3738 83.7671 18.3315C83.7979 18.2872 83.8415 18.2406 83.8935 18.2016L86.8312 22.1184ZM88.369 19.9687C88.6281 19.2285 88.7304 18.4522 88.7304 17.68H83.8343C83.8343 18.0278 83.7874 18.2382 83.7478 18.3513L88.369 19.9687ZM88.7304 17.68C88.7304 16.9065 88.6291 16.1252 88.3658 15.3822L83.751 17.0178C83.7863 17.1175 83.8343 17.3228 83.8343 17.68H88.7304ZM88.3779 15.4172C88.1029 14.6023 87.6174 13.8338 86.8579 13.2577L83.8988 17.1583C83.8377 17.1119 83.7913 17.0601 83.7612 17.0161C83.7327 16.9746 83.7301 16.9569 83.7389 16.9828L88.3779 15.4172ZM86.879 13.2738C86.0414 12.624 85.0723 12.3999 84.1784 12.3999V17.296C84.226 17.296 84.2069 17.302 84.1429 17.2828C84.0736 17.262 83.9768 17.219 83.8777 17.1422L86.879 13.2738ZM84.1784 12.3999C83.2483 12.3999 82.2658 12.6363 81.4148 13.2847L84.382 17.1793C84.3034 17.2392 84.2268 17.2729 84.1738 17.2888C84.1256 17.3033 84.1205 17.296 84.1784 17.296V12.3999ZM81.4345 13.2698C80.6826 13.8308 80.166 14.5761 79.8587 15.4058L84.45 17.1062C84.4594 17.0809 84.4598 17.0889 84.4409 17.1149C84.4209 17.1424 84.3931 17.1711 84.3622 17.1942L81.4345 13.2698ZM79.8622 15.3964C79.5852 16.1352 79.4663 16.9064 79.4663 17.68H84.3624C84.3624 17.4083 84.4036 17.2301 84.4466 17.1156L79.8622 15.3964ZM79.4663 17.68C79.4663 18.4475 79.579 19.2118 79.8416 19.9452L84.4512 18.2948C84.4044 18.1642 84.3624 17.9685 84.3624 17.68H79.4663ZM79.8542 19.9796C80.1563 20.7852 80.6547 21.5162 81.3802 22.0752L84.3685 18.1968C84.3821 18.2073 84.3957 18.2194 84.4085 18.2327C84.4213 18.2459 84.4312 18.2582 84.4383 18.2681C84.4532 18.289 84.4501 18.2912 84.4386 18.2604L79.8542 19.9796ZM81.3802 22.0752C82.2216 22.7234 83.1949 22.96 84.1144 22.96V18.0639C84.0666 18.0639 84.0816 18.0579 84.1387 18.0753C84.2008 18.0941 84.2845 18.1321 84.3685 18.1968L81.3802 22.0752ZM88.7304 22L88.7304 15.936H83.8343L83.8343 22H88.7304ZM86.2824 13.488H86.0424L86.0424 18.384H86.2824L86.2824 13.488ZM88.4904 15.936V10.48H83.5943V15.936H88.4904ZM86.0424 12.928H87.9864V8.03195H86.0424V12.928ZM85.5383 10.48L85.5383 22H90.4344V10.48H85.5383ZM87.9864 19.5519H86.2824V24.448H87.9864V19.5519Z" fill="black"/>
</g>
<g filter="url(#filter1_d_1118_3793)">
<path d="M46.7195 82.0453C43.8249 82.0453 41.0643 81.469 38.4378 80.3166C35.8112 79.1373 33.5197 77.489 31.5631 75.3716C29.6334 73.2543 28.2531 70.7618 27.4223 67.894L38.0357 65.0798C38.5986 67.1971 39.6975 68.8454 41.3324 70.0247C42.9941 71.1772 44.7898 71.7534 46.7195 71.7534C48.3812 71.7534 49.8955 71.3514 51.2624 70.5473C52.6561 69.7433 53.7549 68.6578 54.559 67.2909C55.3898 65.924 55.8053 64.4097 55.8053 62.748C55.8053 60.2555 54.9476 58.1248 53.2323 56.3558C51.5438 54.5601 49.3729 53.6623 46.7195 53.6623C45.9154 53.6623 45.1382 53.7829 44.3877 54.0241C43.6373 54.2385 42.9137 54.5467 42.2168 54.9488L37.3121 46.3454L55.7249 31.0684L56.5289 33.4002L29.6736 33.4002L29.6736 23.1083L65.8559 23.1083V33.4002L51.5438 47.2299L51.4634 44.1745C54.7868 44.6837 57.5876 45.8496 59.8657 47.6721C62.1707 49.4678 63.9128 51.6923 65.0921 54.3457C66.2981 56.9723 66.9012 59.7731 66.9012 62.748C66.9012 66.3931 65.9765 69.6763 64.1272 72.5977C62.2779 75.4922 59.8255 77.7972 56.7701 79.5125C53.7147 81.201 50.3645 82.0453 46.7195 82.0453Z" fill="#94E95D"/>
<path d="M38.4378 80.3166L37.4351 82.5498L37.4446 82.5541L37.4541 82.5583L38.4378 80.3166ZM31.5631 75.3716L29.7538 77.0207L29.7595 77.0269L29.7652 77.033L31.5631 75.3716ZM27.4223 67.894L26.7949 65.5277L24.374 66.1696L25.0709 68.5752L27.4223 67.894ZM38.0357 65.0798L40.4016 64.4509L39.7731 62.0865L37.4083 62.7135L38.0357 65.0798ZM41.3324 70.0247L39.9002 72.0101L39.9186 72.0234L39.9372 72.0363L41.3324 70.0247ZM51.2624 70.5473L50.039 68.4269L50.0301 68.432L50.0212 68.4373L51.2624 70.5473ZM54.559 67.2909L52.4671 66.0194L52.4579 66.0345L52.4489 66.0497L54.559 67.2909ZM53.2323 56.3558L51.4489 58.0328L51.4617 58.0465L51.4749 58.06L53.2323 56.3558ZM44.3877 54.0241L45.0603 56.378L45.0988 56.367L45.1369 56.3547L44.3877 54.0241ZM42.2168 54.9488L40.0901 56.1612L41.3088 58.2989L43.4402 57.0692L42.2168 54.9488ZM37.3121 46.3454L35.7489 44.4614L34.1679 45.7732L35.1854 47.5578L37.3121 46.3454ZM55.7249 31.0684L58.0392 30.2704L56.8854 26.9246L54.1617 29.1844L55.7249 31.0684ZM56.5289 33.4002V35.8482H59.9626L58.8432 32.6022L56.5289 33.4002ZM29.6736 33.4002H27.2256V35.8482H29.6736V33.4002ZM29.6736 23.1083V20.6603H27.2256V23.1083H29.6736ZM65.8559 23.1083H68.3039V20.6603H65.8559V23.1083ZM65.8559 33.4002L67.557 35.1606L68.3039 34.4389V33.4002H65.8559ZM51.5438 47.2299L49.0966 47.2943L49.243 52.8573L53.2449 48.9903L51.5438 47.2299ZM51.4634 44.1745L51.8342 41.7547L48.9391 41.3111L49.0162 44.2389L51.4634 44.1745ZM59.8657 47.6721L58.3364 49.5837L58.3488 49.5936L58.3612 49.6033L59.8657 47.6721ZM65.0921 54.3457L62.855 55.34L62.8611 55.3537L62.8673 55.3673L65.0921 54.3457ZM64.1272 72.5977L66.1902 73.9157L66.1956 73.907L64.1272 72.5977ZM56.7701 79.5125L57.9542 81.6551L57.9614 81.6512L57.9685 81.6472L56.7701 79.5125ZM46.7195 79.5972C44.1603 79.5972 41.735 79.0899 39.4214 78.0748L37.4541 82.5583C40.3937 83.8481 43.4895 84.4933 46.7195 84.4933V79.5972ZM39.4405 78.0833C37.1152 77.0393 35.0941 75.5856 33.3611 73.7102L29.7652 77.033C31.9453 79.3923 34.5072 81.2353 37.4351 82.5498L39.4405 78.0833ZM33.3725 73.7226C31.7058 71.894 30.5048 69.7363 29.7736 67.2127L25.0709 68.5752C26.0015 71.7872 27.561 74.6147 29.7538 77.0207L33.3725 73.7226ZM28.0497 70.2602L38.6632 67.4461L37.4083 62.7135L26.7949 65.5277L28.0497 70.2602ZM35.6699 65.7087C36.3644 68.3217 37.7659 70.4706 39.9002 72.0101L42.7645 68.0393C41.629 67.2203 40.8327 66.0726 40.4016 64.4509L35.6699 65.7087ZM39.9372 72.0363C41.9878 73.4585 44.2664 74.2015 46.7195 74.2015V69.3054C45.3132 69.3054 44.0003 68.8958 42.7275 68.0131L39.9372 72.0363ZM46.7195 74.2015C48.7959 74.2015 50.7422 73.6935 52.5036 72.6574L50.0212 68.4373C49.0488 69.0092 47.9665 69.3054 46.7195 69.3054V74.2015ZM52.4857 72.6678C54.2404 71.6555 55.6471 70.2694 56.669 68.5321L52.4489 66.0497C51.8627 67.0463 51.0717 67.8311 50.039 68.4269L52.4857 72.6678ZM56.6509 68.5625C57.724 66.7971 58.2533 64.84 58.2533 62.748H53.3572C53.3572 63.9795 53.0557 65.051 52.4671 66.0194L56.6509 68.5625ZM58.2533 62.748C58.2533 59.6275 57.1537 56.8832 54.9898 54.6516L51.4749 58.06C52.7415 59.3663 53.3572 60.8835 53.3572 62.748H58.2533ZM55.0158 54.6789C52.8265 52.3506 49.9906 51.2142 46.7195 51.2142V56.1103C48.7551 56.1103 50.2611 56.7696 51.4489 58.0328L55.0158 54.6789ZM46.7195 51.2142C45.6663 51.2142 44.636 51.3729 43.6386 51.6935L45.1369 56.3547C45.6404 56.1929 46.1646 56.1103 46.7195 56.1103V51.2142ZM43.7152 51.6702C42.7665 51.9413 41.8583 52.3293 40.9935 52.8283L43.4402 57.0692C43.969 56.7641 44.5081 56.5357 45.0603 56.378L43.7152 51.6702ZM44.3435 53.7363L39.4388 45.133L35.1854 47.5578L40.0901 56.1612L44.3435 53.7363ZM38.8753 48.2294L57.288 32.9525L54.1617 29.1844L35.7489 44.4614L38.8753 48.2294ZM53.4105 31.8665L54.2146 34.1982L58.8432 32.6022L58.0392 30.2704L53.4105 31.8665ZM56.5289 30.9522L29.6736 30.9522L29.6736 35.8482L56.5289 35.8482V30.9522ZM32.1217 33.4002L32.1217 23.1083H27.2256L27.2256 33.4002H32.1217ZM29.6736 25.5564L65.8559 25.5564V20.6603L29.6736 20.6603V25.5564ZM63.4079 23.1083L63.4079 33.4002H68.3039V23.1083H63.4079ZM64.1548 31.6398L49.8427 45.4694L53.2449 48.9903L67.557 35.1606L64.1548 31.6398ZM53.991 47.1655L53.9106 44.1101L49.0162 44.2389L49.0966 47.2943L53.991 47.1655ZM51.0926 46.5943C54.0575 47.0486 56.4415 48.0677 58.3364 49.5837L61.395 45.7605C58.7337 43.6314 55.5161 42.3188 51.8342 41.7547L51.0926 46.5943ZM58.3612 49.6033C60.3508 51.1533 61.8402 53.0568 62.855 55.34L67.3291 53.3515C65.9853 50.3279 63.9906 47.7824 61.3702 45.7409L58.3612 49.6033ZM62.8673 55.3673C63.9219 57.6639 64.4531 60.1151 64.4531 62.748H69.3492C69.3492 59.4311 68.6744 56.2807 67.3168 53.3242L62.8673 55.3673ZM64.4531 62.748C64.4531 65.9558 63.6464 68.7803 62.0587 71.2883L66.1956 73.907C68.3066 70.5723 69.3492 66.8303 69.3492 62.748H64.4531ZM62.0642 71.2797C60.4361 73.8281 58.2835 75.8554 55.5717 77.3778L57.9685 81.6472C61.3675 79.739 64.1197 77.1564 66.1902 73.9157L62.0642 71.2797ZM55.586 77.3699C52.9094 78.8491 49.9693 79.5972 46.7195 79.5972V84.4933C50.7597 84.4933 54.5201 83.553 57.9542 81.6551L55.586 77.3699Z" fill="black"/>
</g>
</g>
<defs>
<filter id="filter0_d_1118_3793" x="74.12" y="10.48" width="17.3326" height="15.2262" filterUnits="userSpaceOnUse" color-interpolation-filters="sRGB">
<feFlood flood-opacity="0" result="BackgroundImageFix"/>
<feColorMatrix in="SourceAlpha" type="matrix" values="0 0 0 0 0 0 0 0 0 0 0 0 0 0 0 0 0 0 127 0" result="hardAlpha"/>
<feOffset dx="3.4662" dy="3.4662"/>
<feComposite in2="hardAlpha" operator="out"/>
<feColorMatrix type="matrix" values="0 0 0 0 0 0 0 0 0 0 0 0 0 0 0 0 0 0 1 0"/>
<feBlend mode="normal" in2="BackgroundImageFix" result="effect1_dropShadow_1118_3793"/>
<feBlend mode="normal" in="SourceGraphic" in2="effect1_dropShadow_1118_3793" result="shape"/>
</filter>
<filter id="filter1_d_1118_3793" x="27.4223" y="23.1083" width="42.9451" height="62.4031" filterUnits="userSpaceOnUse" color-interpolation-filters="sRGB">
<feFlood flood-opacity="0" result="BackgroundImageFix"/>
<feColorMatrix in="SourceAlpha" type="matrix" values="0 0 0 0 0 0 0 0 0 0 0 0 0 0 0 0 0 0 127 0" result="hardAlpha"/>
<feOffset dx="3.4662" dy="3.4662"/>
<feComposite in2="hardAlpha" operator="out"/>
<feColorMatrix type="matrix" values="0 0 0 0 0 0 0 0 0 0 0 0 0 0 0 0 0 0 1 0"/>
<feBlend mode="normal" in2="BackgroundImageFix" result="effect1_dropShadow_1118_3793"/>
<feBlend mode="normal" in="SourceGraphic" in2="effect1_dropShadow_1118_3793" result="shape"/>
</filter>
<clipPath id="clip0_1118_3793">
<rect width="100" height="100" fill="white"/>
</clipPath>
</defs>
</svg>
