<svg width="19" height="18" viewBox="0 0 19 18" fill="none" xmlns="http://www.w3.org/2000/svg">
<path d="M6.33333 8.1H4.22222V9.9H6.33333V8.1ZM10.5556 8.1H8.44444V9.9H10.5556V8.1ZM14.7778 8.1H12.6667V9.9H14.7778V8.1ZM16.8889 1.8H15.8333V0H13.7222V1.8H5.27778V0H3.16667V1.8H2.11111C0.939444 1.8 0.0105555 2.61 0.0105555 3.6L0 16.2C0 16.6774 0.22242 17.1352 0.61833 17.4728C1.01424 17.8104 1.55121 18 2.11111 18H16.8889C18.05 18 19 17.19 19 16.2V3.6C19 2.61 18.05 1.8 16.8889 1.8ZM16.8889 16.2H2.11111V6.3H16.8889V16.2Z" fill="white"/>
</svg>
