<svg width="1538" height="1539" viewBox="0 0 1538 1539" fill="none" xmlns="http://www.w3.org/2000/svg">
<path d="M768.501 659.712L661.35 659.711M661.35 659.711H551.565M661.35 659.711V549.923M661.35 659.711V769.496M551.565 659.711H441.783M551.565 659.711V549.923M551.565 659.711L551.566 769.496M441.783 659.711L331.996 659.712M441.783 659.711V549.923M441.783 659.711V769.496M331.996 659.712L222.213 659.711M331.996 659.712V549.923M331.996 659.712L331.996 769.496M222.213 659.711H112.425M222.213 659.711L222.213 549.923M222.213 659.711L222.213 769.495M112.425 659.711L2.63924 659.711M112.425 659.711V549.923M112.425 659.711L112.425 769.495M2.63924 659.711H0.00481789M2.63924 659.711L2.6392 549.923M2.63924 659.711L2.63918 769.495M331.996 1.00001L331.996 110.782M331.996 1.00001L441.783 1.00003M331.996 1.00001H222.213M331.996 110.782V220.57M331.996 110.782L441.783 110.782M331.996 110.782L222.213 110.782M331.996 220.57L331.996 330.355M331.996 220.57H441.783M331.996 220.57H222.213M331.996 330.355L331.996 440.145M331.996 330.355H441.783M331.996 330.355H222.213M331.996 440.145V549.923M331.996 440.145H441.783M331.996 440.145H222.213M331.996 549.923L441.783 549.923M331.996 549.923L222.213 549.923M331.996 769.496H441.783M331.996 769.496L222.213 769.495M768.496 220.57H661.35M661.35 220.57H551.565M661.35 220.57L661.35 110.782M661.35 220.57L661.35 330.355M551.565 220.57H441.783M551.565 220.57V110.782M551.565 220.57V330.355M441.783 220.57V110.782M441.783 220.57L441.783 330.355M222.213 220.57H112.425M222.213 220.57V110.782M222.213 220.57V330.355M112.425 220.57L2.63925 220.57M112.425 220.57L112.425 110.782M112.425 220.57L112.425 330.355M2.63925 220.57L1.01082e-05 220.57M2.63925 220.57L2.63925 110.782M2.63925 220.57L2.63924 330.355M768.497 769.495L661.35 769.496M661.35 769.496H551.566M551.566 769.496H441.783M222.213 769.495H112.425M112.425 769.495H2.63918M2.63918 769.495H0.000568215M551.565 1.00001V110.782M551.565 1.00001H661.35M551.565 1.00001L441.783 1.00003M551.565 110.782H661.35M551.565 110.782L441.783 110.782M551.565 330.355L551.566 440.145M551.565 330.355H661.35M551.565 330.355L441.783 330.355M551.566 440.145L551.565 549.923M551.566 440.145L661.35 440.145M551.566 440.145H441.783M551.565 549.923H661.35M551.565 549.923H441.783M768.499 440.145H661.35M661.35 440.145V330.355M661.35 440.145L661.35 549.923M441.783 440.145L441.783 330.355M441.783 440.145L441.783 549.923M222.213 440.145H112.425M222.213 440.145V330.355M222.213 440.145V549.923M112.425 440.145L2.63922 440.145M112.425 440.145L112.425 330.355M112.425 440.145L112.425 549.923M2.63922 440.145L0.00263135 440.145M2.63922 440.145L2.63924 330.355M2.63922 440.145L2.6392 549.923M112.425 1L112.425 110.782M112.425 1L222.213 1.00001M112.425 1H2.63926M112.425 110.782L222.213 110.782M112.425 110.782L2.63925 110.782M112.425 330.355L222.213 330.355M112.425 330.355L2.63924 330.355M112.425 549.923L222.213 549.923M112.425 549.923L2.6392 549.923M768.496 1.00001H661.35M661.35 1.00001V110.782M441.783 1.00003L441.783 110.782M222.213 1.00001L222.213 110.782M2.63926 1L0 1.00001M2.63926 1L2.63925 110.782M661.35 110.782H768.498M661.35 330.355L768.497 330.355M661.35 549.923L768.498 549.923M2.6392 549.923L0.00159335 549.923M2.63925 110.782L0.00161299 110.782M2.63924 330.355H0.000529378" stroke="#050505" stroke-opacity="0.41" stroke-width="1.06082"/>
<path d="M1537 659.712L1429.85 659.711M1429.85 659.711H1320.07M1429.85 659.711V549.923M1429.85 659.711V769.496M1320.07 659.711H1210.28M1320.07 659.711V549.923M1320.07 659.711L1320.07 769.496M1210.28 659.711L1100.5 659.712M1210.28 659.711V549.923M1210.28 659.711V769.496M1100.5 659.712L990.713 659.711M1100.5 659.712V549.923M1100.5 659.712L1100.5 769.496M990.713 659.711H880.926M990.713 659.711L990.714 549.923M990.713 659.711L990.714 769.495M880.926 659.711L771.14 659.711H768.506M880.926 659.711V549.923M880.926 659.711L880.926 769.495M1100.5 1.00001L1100.5 110.782M1100.5 1.00001L1210.28 1.00003M1100.5 1.00001H990.714M1100.5 110.782V220.57M1100.5 110.782L1210.28 110.782M1100.5 110.782L990.714 110.782M1100.5 220.57L1100.5 330.355M1100.5 220.57H1210.28M1100.5 220.57H990.714M1100.5 330.355L1100.5 440.145M1100.5 330.355H1210.28M1100.5 330.355H990.714M1100.5 440.145V549.923M1100.5 440.145H1210.28M1100.5 440.145H990.714M1100.5 549.923L1210.28 549.923M1100.5 549.923L990.714 549.923M1100.5 769.496H1210.28M1100.5 769.496L990.714 769.495M1537 220.57H1429.85M1429.85 220.57H1320.07M1429.85 220.57L1429.85 110.782M1429.85 220.57L1429.85 330.355M1320.07 220.57H1210.28M1320.07 220.57V110.782M1320.07 220.57V330.355M1210.28 220.57V110.782M1210.28 220.57L1210.28 330.355M990.714 220.57H880.926M990.714 220.57V110.782M990.714 220.57V330.355M880.926 220.57L771.14 220.57M880.926 220.57L880.926 110.782M880.926 220.57L880.926 330.355M771.14 220.57L768.501 220.57M771.14 220.57L771.14 110.782M771.14 220.57L771.14 330.355M1537 769.495L1429.85 769.496M1429.85 769.496H1320.07M1320.07 769.496H1210.28M990.714 769.495H880.926M880.926 769.495H771.14L771.14 330.355M1320.07 1.00001V110.782M1320.07 1.00001H1429.85M1320.07 1.00001L1210.28 1.00003M1320.07 110.782H1429.85M1320.07 110.782L1210.28 110.782M1320.07 330.355L1320.07 440.145M1320.07 330.355H1429.85M1320.07 330.355L1210.28 330.355M1320.07 440.145L1320.07 549.923M1320.07 440.145L1429.85 440.145M1320.07 440.145H1210.28M1320.07 549.923H1429.85M1320.07 549.923H1210.28M1537 440.145H1429.85M1429.85 440.145V330.355M1429.85 440.145L1429.85 549.923M1210.28 440.145L1210.28 330.355M1210.28 440.145L1210.28 549.923M990.714 440.145H880.926M990.714 440.145V330.355M990.714 440.145V549.923M880.926 440.145L771.14 440.145L768.504 440.145M880.926 440.145L880.926 330.355M880.926 440.145L880.926 549.923M880.926 110.782L880.926 1L990.714 1.00001M880.926 110.782L990.714 110.782M880.926 110.782L771.14 110.782M880.926 330.355L990.714 330.355M880.926 330.355L771.14 330.355M880.926 549.923L990.714 549.923M880.926 549.923L771.14 549.923L768.503 549.923M1537 1.00001H1429.85M1429.85 1.00001V110.782M1210.28 1.00003L1210.28 110.782M990.714 1.00001L990.714 110.782M1429.85 110.782H1537M1429.85 330.355L1537 330.355M1429.85 549.923L1537 549.923M771.14 110.782L768.503 110.782M771.14 110.782V1.00001M771.14 330.355H768.501" stroke="#050505" stroke-opacity="0.41" stroke-width="1.06082"/>
<path d="M768.501 1428.21L661.35 1428.21M661.35 1428.21H551.565M661.35 1428.21V1318.42M661.35 1428.21V1537.99M551.565 1428.21H441.783M551.565 1428.21V1318.42M551.565 1428.21L551.566 1537.99M441.783 1428.21L331.996 1428.21M441.783 1428.21V1318.42M441.783 1428.21V1537.99M331.996 1428.21L222.213 1428.21M331.996 1428.21V1318.42M331.996 1428.21L331.996 1537.99M222.213 1428.21H112.425M222.213 1428.21L222.213 1318.42M222.213 1428.21L222.213 1537.99M112.425 1428.21L2.63923 1428.21H0.00480778M112.425 1428.21V1318.42M112.425 1428.21L112.425 1537.99M331.996 769.496L331.996 879.278M331.996 769.496L441.783 769.496M331.996 769.496H222.213M331.996 879.278V989.066M331.996 879.278L441.783 879.278M331.996 879.278L222.213 879.278M331.996 989.066L331.996 1098.85M331.996 989.066H441.783M331.996 989.066H222.213M331.996 1098.85L331.996 1208.64M331.996 1098.85H441.783M331.996 1098.85H222.213M331.996 1208.64V1318.42M331.996 1208.64H441.783M331.996 1208.64H222.213M331.996 1318.42L441.783 1318.42M331.996 1318.42L222.213 1318.42M331.996 1537.99H441.783M331.996 1537.99L222.213 1537.99M768.496 989.066H661.35M661.35 989.066H551.565M661.35 989.066L661.35 879.278M661.35 989.066L661.35 1098.85M551.565 989.066H441.783M551.565 989.066V879.278M551.565 989.066V1098.85M441.783 989.066V879.278M441.783 989.066L441.783 1098.85M222.213 989.066H112.425M222.213 989.066V879.278M222.213 989.066V1098.85M112.425 989.066L2.63924 989.066M112.425 989.066L112.425 879.278M112.425 989.066L112.425 1098.85M2.63924 989.066L0 989.066M2.63924 989.066L2.63924 879.278M2.63924 989.066L2.63923 1098.85M768.497 1537.99L661.35 1537.99M661.35 1537.99H551.566M551.566 1537.99H441.783M222.213 1537.99H112.425M112.425 1537.99H2.63919L2.63923 1098.85M551.565 769.496V879.278M551.565 769.496H661.35M551.565 769.496L441.783 769.496M551.565 879.278H661.35M551.565 879.278L441.783 879.278M551.565 1098.85L551.566 1208.64M551.565 1098.85H661.35M551.565 1098.85L441.783 1098.85M551.566 1208.64L551.565 1318.42M551.566 1208.64L661.35 1208.64M551.566 1208.64H441.783M551.565 1318.42H661.35M551.565 1318.42H441.783M768.499 1208.64H661.35M661.35 1208.64V1098.85M661.35 1208.64L661.35 1318.42M441.783 1208.64L441.783 1098.85M441.783 1208.64L441.783 1318.42M222.213 1208.64H112.425M222.213 1208.64V1098.85M222.213 1208.64V1318.42M112.425 1208.64L2.63921 1208.64L0.00262124 1208.64M112.425 1208.64L112.425 1098.85M112.425 1208.64L112.425 1318.42M112.425 879.278L112.425 769.496L222.213 769.496M112.425 879.278L222.213 879.278M112.425 879.278L2.63924 879.278M112.425 1098.85L222.213 1098.85M112.425 1098.85L2.63923 1098.85M112.425 1318.42L222.213 1318.42M112.425 1318.42L2.63919 1318.42L0.00158325 1318.42M768.496 769.496H661.35M661.35 769.496V879.278M441.783 769.496L441.783 879.278M222.213 769.496L222.213 879.278M661.35 879.278H768.498M661.35 1098.85L768.497 1098.85M661.35 1318.42L768.498 1318.42M2.63924 879.278L0.00160289 879.278M2.63924 879.278V769.496M2.63923 1098.85H0.00051927" stroke="#050505" stroke-opacity="0.41" stroke-width="1.06082"/>
<path d="M1537 1428.21L1429.85 1428.21M1429.85 1428.21H1320.07M1429.85 1428.21V1318.42M1429.85 1428.21V1537.99M1320.07 1428.21H1210.28M1320.07 1428.21V1318.42M1320.07 1428.21L1320.07 1537.99M1210.28 1428.21L1100.5 1428.21M1210.28 1428.21V1318.42M1210.28 1428.21V1537.99M1100.5 1428.21L990.714 1428.21M1100.5 1428.21V1318.42M1100.5 1428.21L1100.5 1537.99M990.714 1428.21H880.927M990.714 1428.21L990.715 1318.42M990.714 1428.21L990.714 1537.99M880.927 1428.21L771.141 1428.21H768.507M880.927 1428.21V1318.42M880.927 1428.21L880.927 1537.99M1100.5 769.496L1100.5 879.278M1100.5 769.496L1210.28 769.496M1100.5 769.496H990.715M1100.5 879.278V989.066M1100.5 879.278L1210.28 879.278M1100.5 879.278L990.715 879.278M1100.5 989.066L1100.5 1098.85M1100.5 989.066H1210.28M1100.5 989.066H990.715M1100.5 1098.85L1100.5 1208.64M1100.5 1098.85H1210.28M1100.5 1098.85H990.715M1100.5 1208.64V1318.42M1100.5 1208.64H1210.28M1100.5 1208.64H990.715M1100.5 1318.42L1210.28 1318.42M1100.5 1318.42L990.715 1318.42M1100.5 1537.99H1210.28M1100.5 1537.99L990.714 1537.99M1537 989.066H1429.85M1429.85 989.066H1320.07M1429.85 989.066L1429.85 879.278M1429.85 989.066L1429.85 1098.85M1320.07 989.066H1210.28M1320.07 989.066V879.278M1320.07 989.066V1098.85M1210.28 989.066V879.278M1210.28 989.066L1210.28 1098.85M990.715 989.066H880.927M990.715 989.066V879.278M990.715 989.066V1098.85M880.927 989.066L771.141 989.066M880.927 989.066L880.927 879.278M880.927 989.066L880.927 1098.85M771.141 989.066L768.502 989.066M771.141 989.066L771.141 879.278M771.141 989.066L771.141 1098.85M1537 1537.99L1429.85 1537.99M1429.85 1537.99H1320.07M1320.07 1537.99H1210.28M990.714 1537.99H880.927M880.927 1537.99H771.141L771.141 1098.85M1320.07 769.496V879.278M1320.07 769.496H1429.85M1320.07 769.496L1210.28 769.496M1320.07 879.278H1429.85M1320.07 879.278L1210.28 879.278M1320.07 1098.85L1320.07 1208.64M1320.07 1098.85H1429.85M1320.07 1098.85L1210.28 1098.85M1320.07 1208.64L1320.07 1318.42M1320.07 1208.64L1429.85 1208.64M1320.07 1208.64H1210.28M1320.07 1318.42H1429.85M1320.07 1318.42H1210.28M1537 1208.64H1429.85M1429.85 1208.64V1098.85M1429.85 1208.64L1429.85 1318.42M1210.28 1208.64L1210.28 1098.85M1210.28 1208.64L1210.28 1318.42M990.715 1208.64H880.927M990.715 1208.64V1098.85M990.715 1208.64V1318.42M880.927 1208.64L771.141 1208.64L768.505 1208.64M880.927 1208.64L880.927 1098.85M880.927 1208.64L880.927 1318.42M880.927 879.278L880.927 769.496L990.715 769.496M880.927 879.278L990.715 879.278M880.927 879.278L771.141 879.278M880.927 1098.85L990.715 1098.85M880.927 1098.85L771.141 1098.85M880.927 1318.42L990.715 1318.42M880.927 1318.42L771.141 1318.42L768.504 1318.42M1537 769.496H1429.85M1429.85 769.496V879.278M1210.28 769.496L1210.28 879.278M990.715 769.496L990.715 879.278M1429.85 879.278H1537M1429.85 1098.85L1537 1098.85M1429.85 1318.42L1537 1318.42M771.141 879.278L768.504 879.278M771.141 879.278V769.496M771.141 1098.85H768.502" stroke="#050505" stroke-opacity="0.41" stroke-width="1.06082"/>
</svg>
