<svg width="94" height="140" viewBox="0 0 94 140" fill="none" xmlns="http://www.w3.org/2000/svg">
<path d="M120.44 108.666L46.904 101.673L88.1882 39.3623L161.724 46.3561L120.44 108.666Z" fill="#0D0D0D" stroke="#0D0D0D" stroke-width="1.09464" stroke-linecap="round" stroke-linejoin="round"/>
<path d="M161.616 46.4236L88.081 39.4296L73.9414 16.8015L147.477 23.7955L161.616 46.4236Z" fill="#FFCB45" stroke="#0D0D0D" stroke-width="1.09464" stroke-linecap="round" stroke-linejoin="round"/>
<path d="M147.463 23.7656L161.62 46.4216L120.335 108.732L106.196 86.1039L147.463 23.7656Z" fill="#FFF066" stroke="#0D0D0D" stroke-width="1.09464" stroke-linecap="round" stroke-linejoin="round"/>
<path d="M73.9265 16.7732L88.0835 39.4292L46.7993 101.74L32.6423 79.0836L73.9265 16.7732Z" fill="#FFF066" stroke="#0D0D0D" stroke-width="1.09464" stroke-linecap="round" stroke-linejoin="round"/>
<path d="M120.439 108.666L46.9036 101.673L33.0957 79.5753L106.3 86.0383L120.439 108.666Z" fill="#FFCB45" stroke="#0D0D0D" stroke-width="1.09464" stroke-linecap="round" stroke-linejoin="round"/>
<path d="M140.113 12.0055L142.123 21.1986L100.839 83.509L98.8292 74.3159L140.113 12.0055Z" fill="#FFF066" stroke="#0D0D0D" stroke-width="1.09464" stroke-linecap="round" stroke-linejoin="round"/>
<path d="M98.8287 74.3155L100.839 83.5086L21.8715 61.8463L19.8617 52.6532L98.8287 74.3155Z" fill="#FFCB45" stroke="#0D0D0D" stroke-width="1.09464" stroke-linecap="round" stroke-linejoin="round"/>
<path d="M19.8591 52.6547L98.8261 74.317L140.11 12.0067L61.1433 -9.65565L19.8591 52.6547Z" fill="#FFF066" stroke="#0D0D0D" stroke-width="1.09464" stroke-linecap="round" stroke-linejoin="round"/>
<path d="M37.6953 25.7383L116.662 47.4006L122.271 38.9241L43.3038 17.2617L37.6953 25.7383Z" fill="#3F6FD9" stroke="#020203" stroke-width="1.09464" stroke-linecap="round" stroke-linejoin="round"/>
<path d="M54.3835 62.1184L64.3517 64.8624L105.619 2.52411L95.6409 -0.175235L54.3835 62.1184Z" fill="#3F6FD9" stroke="#020203" stroke-width="1.09464" stroke-linecap="round" stroke-linejoin="round"/>
<path d="M85.2714 22.5019C81.9439 21.5945 78.459 21.7385 75.287 22.9149C72.1149 24.0912 69.4087 26.243 67.534 29.0795C66.8303 30.144 66.3952 31.3748 66.2659 32.6671C66.1366 33.9595 66.317 35.2753 66.7913 36.5036C67.2656 37.7318 68.0199 38.8362 68.9907 39.7227C69.9614 40.6093 71.1198 41.2521 72.3676 41.5966C75.6886 42.5166 79.171 42.3919 82.3486 41.2394C85.5261 40.0869 88.2472 37.9615 90.148 35.1475C90.8632 34.0738 91.3065 32.8306 91.4398 31.5242C91.573 30.2177 91.3924 28.8867 90.9134 27.6446C90.4344 26.4025 89.671 25.2861 88.6886 24.3907C87.7062 23.4952 86.5338 22.8472 85.2714 22.5019Z" fill="#3F6FD9" stroke="#020203" stroke-width="1.09464" stroke-linecap="round" stroke-linejoin="round"/>
<path d="M39.6122 40.9326C48.5911 36.9534 53.8074 29.3434 51.381 23.9066C50.4326 22.3094 49.0704 21.0005 47.4501 20.1306C45.8297 19.2606 44.0172 18.8645 42.2203 18.9877L26.2907 43.0418C30.8817 43.6232 35.4956 42.8927 39.6122 40.9326V40.9326Z" fill="#0D0D0D" stroke="#020203" stroke-width="1.09464" stroke-linecap="round" stroke-linejoin="round"/>
<path d="M98.2434 0.527615C97.3565 2.14499 96.9562 4.005 97.0907 5.88454C97.2252 7.76408 97.8885 9.58351 99.0014 11.1245C102.951 15.532 112.029 13.7436 119.234 7.10501L119.881 6.46762L98.2434 0.527615Z" fill="#0D0D0D" stroke="#020203" stroke-width="1.09464" stroke-linecap="round" stroke-linejoin="round"/>
<path d="M54.3827 62.1176L56.3482 71.2996L66.3433 74.0268L64.3509 64.8617L54.3827 62.1176Z" fill="#144CC7" stroke="#020203" stroke-width="1.09464" stroke-linecap="round" stroke-linejoin="round"/>
<path d="M49.5429 23.7738L48.6476 19.7108L13.6807 26.567L14.6029 30.6131C15.9052 36.4028 24.7669 39.5276 34.4238 37.6495C44.0807 35.7715 50.8452 29.5635 49.5429 23.7738Z" fill="#FFCB45"/>
<path d="M49.5429 23.7738L48.6476 19.7108L13.6807 26.567L14.6029 30.6131C15.9052 36.4028 24.7669 39.5276 34.4238 37.6495C44.0807 35.7715 50.8452 29.5635 49.5429 23.7738Z" stroke="#020203" stroke-width="1.09464" stroke-linecap="round" stroke-linejoin="round"/>
<path d="M33.5026 33.603C43.1689 31.6803 49.916 25.4444 48.6312 19.6826C47.3463 13.9209 38.4672 10.7682 28.8102 12.6462C19.1533 14.5243 12.3968 20.8049 13.6991 26.5946C15.0014 32.3843 23.9678 35.6766 33.5026 33.603Z" fill="#FFF066" stroke="#020203" stroke-width="1.09464" stroke-linecap="round" stroke-linejoin="round"/>
<path d="M45.0593 23.8953C42.0361 27.7038 37.6901 30.1842 32.8639 30.8556C24.1954 32.5821 17.2151 29.7189 16.3948 26.0752C16.2823 25.4351 16.3082 24.7825 16.4704 24.1635C16.603 23.5302 16.8707 22.9389 17.2547 22.4304C20.278 18.6219 24.6236 16.1417 29.4498 15.4704C38.1452 13.727 45.0986 16.607 45.9283 20.206C46.0337 20.8546 46.0141 21.5134 45.8706 22.1454C45.7196 22.7821 45.4437 23.377 45.0593 23.8953V23.8953Z" stroke="#020203" stroke-width="1.09464" stroke-linecap="round" stroke-linejoin="round"/>
<path d="M118.112 -22.065L114.681 -24.3881L95.6408 5.80486L99.1163 8.13907C104.02 11.445 112.254 7.34872 117.505 -0.982279C122.757 -9.31328 122.989 -18.7423 118.112 -22.065Z" fill="#FFCB45"/>
<path d="M118.112 -22.065L114.681 -24.3881L95.6408 5.80486L99.1163 8.13907C104.003 11.4171 112.254 7.34872 117.505 -0.982279C122.757 -9.31328 122.989 -18.7423 118.112 -22.065Z" stroke="#020203" stroke-width="1.09464" stroke-linecap="round" stroke-linejoin="round"/>
<path d="M114.658 -24.3715C109.754 -27.6774 101.547 -23.5982 96.2958 -15.2672C91.0446 -6.93621 90.7405 2.49871 95.6446 5.80465C100.549 9.1106 108.782 5.0144 114.034 -3.31661C119.285 -11.6476 119.589 -21.0823 114.658 -24.3715Z" fill="#FFF066" stroke="#020203" stroke-width="1.09464" stroke-linecap="round" stroke-linejoin="round"/>
<path d="M113.171 -22.0843C110.136 -24.0722 103.357 -21.2345 98.6482 -13.7087C95.8163 -9.75326 94.5626 -4.81851 95.129 0.143446C95.2423 0.787669 95.4669 1.41029 95.7923 1.98197C96.1365 2.55174 96.5871 3.04945 97.1176 3.44558C100.152 5.43356 106.932 2.59578 111.64 -4.93006C114.464 -8.88218 115.709 -13.812 115.133 -18.7654C115.043 -19.4166 114.827 -20.0475 114.496 -20.6207C114.152 -21.1904 113.701 -21.6881 113.171 -22.0843V-22.0843Z" stroke="#020203" stroke-width="1.09464" stroke-linecap="round" stroke-linejoin="round"/>
<path d="M118.434 -19.4694L113.007 -16.7387C108.202 -14.7461 107.364 -12.9795 109.82 -6.24031L112.828 3.53339L108.605 -5.67498C106.08 -11.8664 104.222 -13.3465 99.1715 -11.6277L93.2181 -10.2771L98.6182 -12.9911C103.184 -15.0673 103.971 -17.0352 101.832 -23.5063L98.8246 -33.28L102.907 -24.1776C105.577 -18.3496 106.961 -16.4949 112.358 -18.1972L118.434 -19.4694Z" fill="white"/>
<path d="M54.5928 11.1009L51.0972 12.8579C48.1145 14.0614 47.4174 15.1573 49.0286 19.5886L50.922 25.7858L48.1557 19.7456C46.5216 15.7559 45.3318 14.8679 41.9785 15.8368L38.1555 16.7109L41.6511 14.9538C44.5639 13.6386 45.0848 12.3809 43.7193 8.2233L41.8262 2.02594L44.505 7.92665C46.213 11.676 47.1059 12.866 50.6821 11.8355L54.5928 11.1009Z" fill="white"/>
</svg>
