<svg width="93" height="93" viewBox="0 0 93 93" fill="none" xmlns="http://www.w3.org/2000/svg">
<g clip-path="url(#clip0_1259_6461)">
<mask id="mask0_1259_6461" style="mask-type:alpha" maskUnits="userSpaceOnUse" x="0" y="0" width="93" height="93">
<path d="M46.5804 92.7094C71.9716 92.7094 92.5553 72.1257 92.5553 46.7344C92.5553 21.3432 71.9716 0.759521 46.5804 0.759521C21.1891 0.759521 0.605469 21.3432 0.605469 46.7344C0.605469 72.1257 21.1891 92.7094 46.5804 92.7094Z" fill="white"/>
</mask>
<g mask="url(#mask0_1259_6461)">
<path d="M63.6719 73.2556L28.1253 69.8749L48.0817 39.7546L83.6284 43.1353L63.6719 73.2556Z" fill="#0D0D0D" stroke="#0D0D0D" stroke-width="0.513142" stroke-linecap="round" stroke-linejoin="round"/>
<path d="M83.5768 43.1684L48.0303 39.7876L41.1953 28.8494L76.7418 32.2302L83.5768 43.1684Z" fill="#AA4908" stroke="#0D0D0D" stroke-width="0.513142" stroke-linecap="round" stroke-linejoin="round"/>
<path d="M76.7361 32.2152L83.5795 43.167L63.623 73.2873L56.788 62.3491L76.7361 32.2152Z" fill="#FC883C" stroke="#0D0D0D" stroke-width="0.513142" stroke-linecap="round" stroke-linejoin="round"/>
<path d="M41.1892 28.8352L48.0326 39.787L28.0761 69.9073L21.2327 58.9556L41.1892 28.8352Z" fill="#FC883C" stroke="#0D0D0D" stroke-width="0.513142" stroke-linecap="round" stroke-linejoin="round"/>
<path d="M63.6725 73.2555L28.1258 69.8748L21.4512 59.1931L56.8375 62.3173L63.6725 73.2555Z" fill="#AA4908" stroke="#0D0D0D" stroke-width="0.513142" stroke-linecap="round" stroke-linejoin="round"/>
<path d="M73.1838 26.5306L74.1554 30.9745L54.1989 61.0949L53.2273 56.651L73.1838 26.5306Z" fill="#FC883C" stroke="#0D0D0D" stroke-width="0.513142" stroke-linecap="round" stroke-linejoin="round"/>
<path d="M53.2253 56.6511L54.1968 61.0949L16.0248 50.6235L15.0532 46.1797L53.2253 56.6511Z" fill="#AA4908" stroke="#0D0D0D" stroke-width="0.513142" stroke-linecap="round" stroke-linejoin="round"/>
<path d="M15.054 46.1809L53.2261 56.6523L73.1825 26.532L35.0105 16.0606L15.054 46.1809Z" fill="#FC883C" stroke="#0D0D0D" stroke-width="0.513142" stroke-linecap="round" stroke-linejoin="round"/>
<path d="M23.6768 33.1699L61.8488 43.6413L64.5599 39.5438L26.3878 29.0724L23.6768 33.1699Z" fill="#FFF066" stroke="#020203" stroke-width="0.513142" stroke-linecap="round" stroke-linejoin="round"/>
<path d="M31.7415 50.7549L36.5601 52.0814L56.5081 21.9475L51.685 20.6427L31.7415 50.7549Z" fill="#FFF066" stroke="#020203" stroke-width="0.513142" stroke-linecap="round" stroke-linejoin="round"/>
<path d="M46.6726 31.6043C45.0641 31.1656 43.3795 31.2353 41.8462 31.8039C40.3129 32.3725 39.0047 33.4127 38.0985 34.7839C37.7583 35.2984 37.548 35.8934 37.4855 36.5181C37.423 37.1428 37.5102 37.7789 37.7394 38.3726C37.9687 38.9663 38.3334 39.5001 38.8026 39.9287C39.2719 40.3573 39.8318 40.668 40.435 40.8345C42.0404 41.2792 43.7237 41.219 45.2597 40.6618C46.7957 40.1047 48.1111 39.0773 49.0299 37.7171C49.3756 37.198 49.5899 36.5971 49.6543 35.9656C49.7187 35.3341 49.6314 34.6906 49.3999 34.0902C49.1683 33.4898 48.7993 32.9502 48.3245 32.5173C47.8496 32.0844 47.2828 31.7712 46.6726 31.6043Z" fill="#FFF066" stroke="#020203" stroke-width="0.513142" stroke-linecap="round" stroke-linejoin="round"/>
<path d="M24.6022 40.5141C28.9425 38.5905 31.464 34.912 30.2911 32.2838C29.8327 31.5118 29.1742 30.8791 28.3909 30.4585C27.6077 30.038 26.7315 29.8465 25.8629 29.906L18.1627 41.5336C20.3819 41.8147 22.6123 41.4616 24.6022 40.5141Z" fill="#0D0D0D" stroke="#020203" stroke-width="0.513142" stroke-linecap="round" stroke-linejoin="round"/>
<path d="M52.9425 20.9825C52.5137 21.7643 52.3203 22.6635 52.3853 23.572C52.4503 24.4806 52.7709 25.3601 53.3089 26.1049C55.2179 28.2355 59.6063 27.371 63.0892 24.162L63.402 23.8539L52.9425 20.9825Z" fill="#0D0D0D" stroke="#020203" stroke-width="0.513142" stroke-linecap="round" stroke-linejoin="round"/>
<path d="M61.8501 43.6386L62.8217 48.0825L65.5327 43.985L64.5612 39.5412L61.8501 43.6386Z" fill="#FFF066" stroke="#020203" stroke-width="0.513142" stroke-linecap="round" stroke-linejoin="round"/>
<path d="M31.743 50.7543L32.6931 55.1928L37.5246 56.5111L36.5615 52.0808L31.743 50.7543Z" fill="#E0B23D" stroke="#020203" stroke-width="0.513142" stroke-linecap="round" stroke-linejoin="round"/>
<path d="M29.4038 32.2197L28.971 30.2557L12.0683 33.5699L12.514 35.5257C13.1436 38.3244 17.4272 39.8349 22.0953 38.9271C26.7634 38.0193 30.0333 35.0183 29.4038 32.2197Z" fill="#AA4908"/>
<path d="M29.4038 32.2197L28.971 30.2557L12.0683 33.5699L12.514 35.5257C13.1436 38.3244 17.4272 39.8349 22.0953 38.9271C26.7634 38.0193 30.0333 35.0183 29.4038 32.2197Z" fill="#E0B23D" stroke="#020203" stroke-width="0.513142" stroke-linecap="round" stroke-linejoin="round"/>
<path d="M21.6491 36.9714C26.3217 36.042 29.5832 33.0276 28.9621 30.2424C28.3411 27.4572 24.049 25.9333 19.3809 26.8411C14.7128 27.7489 11.4467 30.7849 12.0763 33.5836C12.7058 36.3823 17.0401 37.9738 21.6491 36.9714Z" fill="#FFF066" stroke="#020203" stroke-width="0.513142" stroke-linecap="round" stroke-linejoin="round"/>
<path d="M27.2357 32.2785C25.7743 34.1194 23.6735 35.3185 21.3405 35.643C17.1502 36.4776 13.776 35.0935 13.3795 33.3322C13.3251 33.0228 13.3376 32.7073 13.416 32.4081C13.4801 32.102 13.6095 31.8161 13.7952 31.5703C15.2566 29.7294 17.3572 28.5304 19.6902 28.2059C23.8935 27.3632 27.2547 28.7553 27.6558 30.4951C27.7067 30.8086 27.6972 31.1271 27.6279 31.4326C27.5549 31.7403 27.4215 32.0279 27.2357 32.2785V32.2785Z" stroke="#020203" stroke-width="0.513142" stroke-linecap="round" stroke-linejoin="round"/>
<path d="M62.5497 10.0616L60.8911 8.93868L51.6873 23.5337L53.3673 24.662C55.7379 26.2601 59.718 24.28 62.2564 20.2529C64.7948 16.2257 64.9073 11.6678 62.5497 10.0616Z" fill="#AA4908"/>
<path d="M62.5497 10.0616L60.8911 8.93868L51.6873 23.5337L53.3673 24.662C55.7295 26.2466 59.718 24.28 62.2564 20.2529C64.7948 16.2257 64.9073 11.6678 62.5497 10.0616Z" fill="#E0B23D" stroke="#020203" stroke-width="0.513142" stroke-linecap="round" stroke-linejoin="round"/>
<path d="M60.8776 8.94606C58.507 7.34799 54.54 9.31984 52.0016 13.347C49.4632 17.3741 49.3162 21.9349 51.6868 23.533C54.0574 25.131 58.0375 23.151 60.5759 19.1238C63.1143 15.0967 63.2612 10.536 60.8776 8.94606Z" fill="#FFF066" stroke="#020203" stroke-width="0.513142" stroke-linecap="round" stroke-linejoin="round"/>
<path d="M60.1594 10.0516C58.6924 9.09063 55.4153 10.4624 53.1392 14.1003C51.7703 16.0123 51.1643 18.3977 51.4381 20.7963C51.4928 21.1077 51.6014 21.4087 51.7587 21.685C51.9251 21.9605 52.1429 22.2011 52.3994 22.3925C53.8664 23.3535 57.1434 21.9818 59.4195 18.3438C60.7845 16.4334 61.386 14.0504 61.1077 11.6559C61.0645 11.3411 60.9599 11.0362 60.8001 10.7591C60.6337 10.4837 60.4159 10.2431 60.1594 10.0516V10.0516Z" stroke="#020203" stroke-width="0.513142" stroke-linecap="round" stroke-linejoin="round"/>
<path d="M62.7047 11.3168L60.0813 12.6368C57.7586 13.6 57.3535 14.454 58.5406 17.7117L59.9945 22.4362L57.9531 17.985C56.7328 14.9921 55.8346 14.2766 53.3931 15.1075L50.5153 15.7603L53.1256 14.4484C55.3328 13.4448 55.7132 12.4935 54.6793 9.36545L53.2254 4.64092L55.1987 9.04091C56.4897 11.8581 57.1583 12.7547 59.7673 11.9318L62.7047 11.3168Z" fill="white"/>
<path d="M31.8436 26.0932L30.1538 26.9425C28.712 27.5242 28.375 28.054 29.1538 30.1961L30.0691 33.1917L28.7319 30.2719C27.942 28.3433 27.3668 27.9141 25.7459 28.3824L23.8979 28.805L25.5876 27.9556C26.9956 27.3199 27.2475 26.7119 26.5874 24.7021L25.6723 21.7064L26.9672 24.5587C27.7928 26.3712 28.2244 26.9464 29.9532 26.4482L31.8436 26.0932Z" fill="white"/>
</g>
</g>
<defs>
<clipPath id="clip0_1259_6461">
<rect width="91.9498" height="91.9498" fill="white" transform="translate(0.605469 0.759521)"/>
</clipPath>
</defs>
</svg>
