<svg width="93" height="93" viewBox="0 0 93 93" fill="none" xmlns="http://www.w3.org/2000/svg">
<g clip-path="url(#clip0_1259_6441)">
<path d="M58.7969 76.1752L23.2503 72.7944L43.2067 42.6741L78.7534 46.0549L58.7969 76.1752Z" fill="#0D0D0D" stroke="#0D0D0D" stroke-width="0.513142" stroke-linecap="round" stroke-linejoin="round"/>
<path d="M78.7018 46.0875L43.1553 42.7067L36.3203 31.7684L71.8668 35.1493L78.7018 46.0875Z" fill="#9724D6" stroke="#0D0D0D" stroke-width="0.513142" stroke-linecap="round" stroke-linejoin="round"/>
<path d="M71.8611 35.1349L78.7045 46.0866L58.748 76.207L51.913 65.2688L71.8611 35.1349Z" fill="#FF8EFF" stroke="#0D0D0D" stroke-width="0.513142" stroke-linecap="round" stroke-linejoin="round"/>
<path d="M36.3142 31.7548L43.1576 42.7065L23.2011 72.8269L16.3577 61.8751L36.3142 31.7548Z" fill="#FF8EFF" stroke="#0D0D0D" stroke-width="0.513142" stroke-linecap="round" stroke-linejoin="round"/>
<path d="M58.7975 76.1753L23.2508 72.7946L16.5762 62.1129L51.9625 65.2371L58.7975 76.1753Z" fill="#9724D6" stroke="#0D0D0D" stroke-width="0.513142" stroke-linecap="round" stroke-linejoin="round"/>
<path d="M68.3088 29.4501L69.2804 33.8939L49.3239 64.0143L48.3523 59.5704L68.3088 29.4501Z" fill="#FF8EFF" stroke="#0D0D0D" stroke-width="0.513142" stroke-linecap="round" stroke-linejoin="round"/>
<path d="M48.3493 59.5704L49.3208 64.0142L11.1488 53.5428L10.1772 49.099L48.3493 59.5704Z" fill="#9724D6" stroke="#0D0D0D" stroke-width="0.513142" stroke-linecap="round" stroke-linejoin="round"/>
<path d="M10.179 49.0998L48.3511 59.5711L68.3075 29.4508L30.1355 18.9794L10.179 49.0998Z" fill="#FF8EFF" stroke="#0D0D0D" stroke-width="0.513142" stroke-linecap="round" stroke-linejoin="round"/>
<path d="M18.8018 36.0884L56.9738 46.5598L59.6849 42.4623L21.5128 31.9909L18.8018 36.0884Z" fill="#FFF066" stroke="#020203" stroke-width="0.513142" stroke-linecap="round" stroke-linejoin="round"/>
<path d="M26.8665 53.6742L31.6851 55.0007L51.6331 24.8668L46.81 23.562L26.8665 53.6742Z" fill="#FFF066" stroke="#020203" stroke-width="0.513142" stroke-linecap="round" stroke-linejoin="round"/>
<path d="M41.7966 34.524C40.1881 34.0853 38.5035 34.155 36.9702 34.7236C35.4369 35.2922 34.1287 36.3324 33.2225 37.7035C32.8823 38.2181 32.672 38.813 32.6095 39.4378C32.547 40.0625 32.6342 40.6985 32.8635 41.2923C33.0927 41.886 33.4574 42.4198 33.9266 42.8484C34.3959 43.2769 34.9558 43.5876 35.559 43.7542C37.1644 44.1989 38.8477 44.1387 40.3837 43.5815C41.9198 43.0244 43.2351 41.997 44.1539 40.6368C44.4996 40.1177 44.7139 39.5168 44.7784 38.8852C44.8428 38.2537 44.7555 37.6103 44.5239 37.0099C44.2924 36.4095 43.9234 35.8698 43.4485 35.437C42.9736 35.0041 42.4069 34.6909 41.7966 34.524Z" fill="#FFF066" stroke="#020203" stroke-width="0.513142" stroke-linecap="round" stroke-linejoin="round"/>
<path d="M19.7272 43.4332C24.0675 41.5097 26.589 37.8311 25.4161 35.203C24.9577 34.4309 24.2992 33.7983 23.5159 33.3777C22.7327 32.9572 21.8565 32.7657 20.9879 32.8252L13.2877 44.4528C15.5069 44.7339 17.7373 44.3808 19.7272 43.4332Z" fill="#0D0D0D" stroke="#020203" stroke-width="0.513142" stroke-linecap="round" stroke-linejoin="round"/>
<path d="M48.0675 23.9017C47.6387 24.6835 47.4453 25.5826 47.5103 26.4912C47.5753 27.3998 47.8959 28.2793 48.4339 29.0241C50.3429 31.1547 54.7313 30.2902 58.2142 27.0812L58.527 26.7731L48.0675 23.9017Z" fill="#0D0D0D" stroke="#020203" stroke-width="0.513142" stroke-linecap="round" stroke-linejoin="round"/>
<path d="M56.9741 46.5581L57.9457 51.0019L60.6567 46.9045L59.6852 42.4606L56.9741 46.5581Z" fill="#FFF066" stroke="#020203" stroke-width="0.513142" stroke-linecap="round" stroke-linejoin="round"/>
<path d="M26.868 53.6739L27.8181 58.1124L32.6496 59.4307L31.6865 55.0003L26.868 53.6739Z" fill="#E0B23D" stroke="#020203" stroke-width="0.513142" stroke-linecap="round" stroke-linejoin="round"/>
<path d="M24.5278 35.1389L24.095 33.1749L7.19227 36.4891L7.63807 38.4449C8.26759 41.2436 12.5513 42.7541 17.2193 41.8463C21.8874 40.9384 25.1573 37.9375 24.5278 35.1389Z" fill="#E0B23D"/>
<path d="M24.5278 35.1389L24.095 33.1749L7.19227 36.4891L7.63807 38.4449C8.26759 41.2436 12.5513 42.7541 17.2193 41.8463C21.8874 40.9384 25.1573 37.9375 24.5278 35.1389Z" stroke="#020203" stroke-width="0.513142" stroke-linecap="round" stroke-linejoin="round"/>
<path d="M16.7741 39.8903C21.4467 38.9608 24.7082 35.9464 24.0871 33.1612C23.4661 30.3761 19.174 28.8521 14.5059 29.7599C9.83779 30.6677 6.57175 33.7038 7.20127 36.5024C7.8308 39.3011 12.1651 40.8926 16.7741 39.8903Z" fill="#FFF066" stroke="#020203" stroke-width="0.513142" stroke-linecap="round" stroke-linejoin="round"/>
<path d="M22.3607 35.1975C20.8993 37.0385 18.7985 38.2375 16.4655 38.5621C12.2752 39.3967 8.90104 38.0126 8.5045 36.2513C8.4501 35.9419 8.46263 35.6264 8.54101 35.3272C8.60515 35.0211 8.73454 34.7352 8.92018 34.4894C10.3816 32.6484 12.4822 31.4495 14.8152 31.125C19.0185 30.2823 22.3797 31.6744 22.7808 33.4141C22.8317 33.7277 22.8222 34.0461 22.7529 34.3517C22.6799 34.6594 22.5465 34.947 22.3607 35.1975V35.1975Z" stroke="#020203" stroke-width="0.513142" stroke-linecap="round" stroke-linejoin="round"/>
<path d="M57.6737 12.9807L56.0151 11.8577L46.8113 26.4528L48.4913 27.5811C50.8619 29.1792 54.842 27.1991 57.3804 23.1719C59.9188 19.1448 60.0313 14.5869 57.6737 12.9807Z" fill="#E0B23D"/>
<path d="M57.6737 12.9807L56.0151 11.8577L46.8113 26.4528L48.4913 27.5811C50.8535 29.1657 54.842 27.1991 57.3804 23.1719C59.9188 19.1448 60.0313 14.5869 57.6737 12.9807Z" stroke="#020203" stroke-width="0.513142" stroke-linecap="round" stroke-linejoin="round"/>
<path d="M56.0026 11.8659C53.632 10.2678 49.665 12.2396 47.1266 16.2668C44.5882 20.2939 44.4412 24.8547 46.8118 26.4528C49.1824 28.0508 53.1625 26.0708 55.7009 22.0436C58.2393 18.0165 58.3862 13.4558 56.0026 11.8659Z" fill="#FFF066" stroke="#020203" stroke-width="0.513142" stroke-linecap="round" stroke-linejoin="round"/>
<path d="M55.2844 12.9713C53.8174 12.0103 50.5403 13.382 48.2642 17.02C46.8953 18.932 46.2893 21.3174 46.5631 23.716C46.6178 24.0274 46.7264 24.3284 46.8837 24.6047C47.0501 24.8801 47.2679 25.1207 47.5244 25.3122C48.9914 26.2732 52.2684 24.9014 54.5445 21.2635C55.9095 19.3531 56.511 16.97 56.2327 14.5756C56.1895 14.2608 56.0849 13.9559 55.9251 13.6788C55.7587 13.4034 55.5409 13.1628 55.2844 12.9713V12.9713Z" stroke="#020203" stroke-width="0.513142" stroke-linecap="round" stroke-linejoin="round"/>
<path d="M57.8297 14.2354L55.2063 15.5554C52.8836 16.5186 52.4785 17.3726 53.6656 20.6303L55.1195 25.3548L53.0781 20.9035C51.8578 17.9107 50.9596 17.1952 48.5181 18.026L45.6403 18.6789L48.2506 17.367C50.4578 16.3633 50.8382 15.4121 49.8043 12.284L48.3504 7.55949L50.3237 11.9595C51.6147 14.7767 52.2833 15.6733 54.8923 14.8504L57.8297 14.2354Z" fill="white"/>
<path d="M26.9686 29.0127L25.2788 29.862C23.837 30.4438 23.5 30.9735 24.2788 33.1156L25.1941 36.1113L23.8569 33.1915C23.067 31.2629 22.4918 30.8336 20.8709 31.302L19.0229 31.7245L20.7126 30.8752C22.1206 30.2394 22.3725 29.6314 21.7124 27.6217L20.7973 24.6259L22.0922 27.4783C22.9178 29.2907 23.3494 29.8659 25.0782 29.3678L26.9686 29.0127Z" fill="white"/>
</g>
<defs>
<clipPath id="clip0_1259_6441">
<rect width="91.9498" height="91.9498" fill="white" transform="translate(0.125977 0.759521)"/>
</clipPath>
</defs>
</svg>
