<svg width="93" height="93" viewBox="0 0 93 93" fill="none" xmlns="http://www.w3.org/2000/svg">
<path d="M62.4434 73.256L26.8968 69.8753L46.8532 39.7549L82.3999 43.1357L62.4434 73.256Z" fill="#0D0D0D" stroke="#0D0D0D" stroke-width="0.513142" stroke-linecap="round" stroke-linejoin="round"/>
<path d="M82.3482 43.1684L46.8018 39.7876L39.9668 28.8494L75.5133 32.2302L82.3482 43.1684Z" fill="#489416" stroke="#0D0D0D" stroke-width="0.513142" stroke-linecap="round" stroke-linejoin="round"/>
<path d="M75.5075 32.216L82.3509 43.1677L62.3945 73.288L55.5595 62.3498L75.5075 32.216Z" fill="#94E95D" stroke="#0D0D0D" stroke-width="0.513142" stroke-linecap="round" stroke-linejoin="round"/>
<path d="M39.9607 28.8356L46.8041 39.7873L26.8476 69.9077L20.0042 58.9559L39.9607 28.8356Z" fill="#94E95D" stroke="#0D0D0D" stroke-width="0.513142" stroke-linecap="round" stroke-linejoin="round"/>
<path d="M62.4439 73.2562L26.8973 69.8755L20.2227 59.1938L55.609 62.318L62.4439 73.2562Z" fill="#489416" stroke="#0D0D0D" stroke-width="0.513142" stroke-linecap="round" stroke-linejoin="round"/>
<path d="M71.9543 26.531L72.9259 30.9749L52.9694 61.0952L51.9979 56.6514L71.9543 26.531Z" fill="#94E95D" stroke="#0D0D0D" stroke-width="0.513142" stroke-linecap="round" stroke-linejoin="round"/>
<path d="M51.9958 56.6511L52.9673 61.0949L14.7953 50.6235L13.8237 46.1797L51.9958 56.6511Z" fill="#489416" stroke="#0D0D0D" stroke-width="0.513142" stroke-linecap="round" stroke-linejoin="round"/>
<path d="M13.8255 46.1807L51.9975 56.6521L71.954 26.5317L33.782 16.0603L13.8255 46.1807Z" fill="#94E95D" stroke="#0D0D0D" stroke-width="0.513142" stroke-linecap="round" stroke-linejoin="round"/>
<path d="M22.4483 33.1693L60.6203 43.6407L63.3314 39.5432L25.1593 29.0718L22.4483 33.1693Z" fill="#FFF066" stroke="#020203" stroke-width="0.513142" stroke-linecap="round" stroke-linejoin="round"/>
<path d="M30.512 50.7551L35.3306 52.0816L55.2786 21.9477L50.4555 20.6429L30.512 50.7551Z" fill="#FFF066" stroke="#020203" stroke-width="0.513142" stroke-linecap="round" stroke-linejoin="round"/>
<path d="M45.4431 31.6049C43.8346 31.1662 42.15 31.2359 40.6167 31.8045C39.0834 32.3731 37.7752 33.4133 36.869 34.7845C36.5288 35.299 36.3185 35.894 36.256 36.5187C36.1935 37.1434 36.2807 37.7795 36.5099 38.3732C36.7392 38.9669 37.1039 39.5008 37.5731 39.9293C38.0424 40.3579 38.6023 40.6686 39.2055 40.8351C40.8109 41.2799 42.4942 41.2196 44.0302 40.6625C45.5662 40.1053 46.8816 39.078 47.8004 37.7177C48.1461 37.1987 48.3604 36.5977 48.4248 35.9662C48.4892 35.3347 48.402 34.6913 48.1704 34.0908C47.9388 33.4904 47.5699 32.9508 47.095 32.5179C46.6201 32.085 46.0534 31.7718 45.4431 31.6049Z" fill="#FFF066" stroke="#020203" stroke-width="0.513142" stroke-linecap="round" stroke-linejoin="round"/>
<path d="M23.3737 40.5141C27.714 38.5905 30.2355 34.912 29.0626 32.2838C28.6042 31.5118 27.9457 30.8791 27.1624 30.4585C26.3792 30.038 25.503 29.8465 24.6344 29.906L16.9341 41.5336C19.1534 41.8147 21.3837 41.4616 23.3737 40.5141V40.5141Z" fill="#0D0D0D" stroke="#020203" stroke-width="0.513142" stroke-linecap="round" stroke-linejoin="round"/>
<path d="M51.7139 20.9825C51.2852 21.7643 51.0917 22.6635 51.1567 23.572C51.2217 24.4806 51.5424 25.3601 52.0804 26.1049C53.9894 28.2355 58.3778 27.371 61.8607 24.162L62.1735 23.8539L51.7139 20.9825Z" fill="#0D0D0D" stroke="#020203" stroke-width="0.513142" stroke-linecap="round" stroke-linejoin="round"/>
<path d="M60.6206 43.6388L61.5922 48.0826L64.3032 43.9851L63.3317 39.5413L60.6206 43.6388Z" fill="#FFF066" stroke="#020203" stroke-width="0.513142" stroke-linecap="round" stroke-linejoin="round"/>
<path d="M30.5145 50.7547L31.4646 55.1932L36.2961 56.5115L35.333 52.0811L30.5145 50.7547Z" fill="#E0B23D" stroke="#020203" stroke-width="0.513142" stroke-linecap="round" stroke-linejoin="round"/>
<path d="M28.1743 32.2197L27.7415 30.2557L10.8388 33.5699L11.2846 35.5257C11.9141 38.3244 16.1977 39.8349 20.8658 38.9271C25.5339 38.0193 28.8038 35.0183 28.1743 32.2197Z" fill="#E0B23D"/>
<path d="M28.1743 32.2197L27.7415 30.2557L10.8388 33.5699L11.2846 35.5257C11.9141 38.3244 16.1977 39.8349 20.8658 38.9271C25.5339 38.0193 28.8038 35.0183 28.1743 32.2197Z" stroke="#020203" stroke-width="0.513142" stroke-linecap="round" stroke-linejoin="round"/>
<path d="M20.4206 36.9712C25.0932 36.0417 28.3547 33.0274 27.7336 30.2422C27.1125 27.457 22.8204 25.933 18.1524 26.8408C13.4843 27.7487 10.2182 30.7847 10.8478 33.5834C11.4773 36.382 15.8116 37.9735 20.4206 36.9712Z" fill="#FFF066" stroke="#020203" stroke-width="0.513142" stroke-linecap="round" stroke-linejoin="round"/>
<path d="M26.0072 32.2785C24.5458 34.1194 22.445 35.3185 20.112 35.643C15.9217 36.4776 12.5475 35.0935 12.151 33.3322C12.0966 33.0228 12.1091 32.7073 12.1875 32.4081C12.2516 32.102 12.381 31.8161 12.5667 31.5703C14.0281 29.7294 16.1287 28.5304 18.4617 28.2059C22.665 27.3632 26.0262 28.7553 26.4273 30.4951C26.4782 30.8086 26.4687 31.1271 26.3993 31.4326C26.3263 31.7403 26.193 32.0279 26.0072 32.2785V32.2785Z" stroke="#020203" stroke-width="0.513142" stroke-linecap="round" stroke-linejoin="round"/>
<path d="M61.3202 10.0616L59.6616 8.93868L50.4578 23.5337L52.1378 24.662C54.5084 26.2601 58.4885 24.28 61.0269 20.2529C63.5653 16.2257 63.6778 11.6678 61.3202 10.0616Z" fill="#489416"/>
<path d="M61.3202 10.0616L59.6616 8.93868L50.4578 23.5337L52.1378 24.662C54.5 26.2466 58.4885 24.28 61.0269 20.2529C63.5653 16.2257 63.6778 11.6678 61.3202 10.0616Z" fill="#E0B23D" stroke="#020203" stroke-width="0.513142" stroke-linecap="round" stroke-linejoin="round"/>
<path d="M59.6481 8.94667C57.2775 7.3486 53.3105 9.32045 50.7721 13.3476C48.2337 17.3747 48.0867 21.9355 50.4573 23.5336C52.8279 25.1316 56.808 23.1516 59.3464 19.1244C61.8848 15.0973 62.0317 10.5366 59.6481 8.94667Z" fill="#FFF066" stroke="#020203" stroke-width="0.513142" stroke-linecap="round" stroke-linejoin="round"/>
<path d="M58.9309 10.0522C57.4639 9.09125 54.1868 10.463 51.9107 14.1009C50.5418 16.0129 49.9358 18.3984 50.2095 20.7969C50.2643 21.1083 50.3729 21.4093 50.5302 21.6856C50.6965 21.9611 50.9144 22.2017 51.1708 22.3931C52.6379 23.3541 55.9149 21.9824 58.191 18.3444C59.556 16.434 60.1575 14.051 59.8792 11.6565C59.836 11.3418 59.7314 11.0368 59.5715 10.7597C59.4052 10.4843 59.1873 10.2437 58.9309 10.0522V10.0522Z" stroke="#020203" stroke-width="0.513142" stroke-linecap="round" stroke-linejoin="round"/>
<path d="M61.4761 11.3163L58.8528 12.6363C56.5301 13.5995 56.125 14.4535 57.3121 17.7112L58.766 22.4357L56.7246 17.9845C55.5043 14.9916 54.6061 14.2761 52.1646 15.107L49.2868 15.7598L51.8971 14.4479C54.1043 13.4443 54.4847 12.493 53.4508 9.36496L51.9969 4.64043L53.9702 9.04042C55.2612 11.8576 55.9298 12.7542 58.5388 11.9313L61.4761 11.3163Z" fill="white"/>
<path d="M30.615 26.0938L28.9253 26.9431C27.4835 27.5248 27.1465 28.0546 27.9253 30.1967L28.8406 33.1923L27.5034 30.2726C26.7134 28.3439 26.1383 27.9147 24.5174 28.3831L22.6693 28.8056L24.3591 27.9562C25.7671 27.3205 26.0189 26.7125 25.3589 24.7028L24.4438 21.707L25.7386 24.5594C26.5643 26.3718 26.9959 26.947 28.7246 26.4489L30.615 26.0938Z" fill="white"/>
</svg>
