<?xml version="1.0" standalone="no"?>
<!DOCTYPE svg PUBLIC "-//W3C//DTD SVG 20010904//EN"
 "http://www.w3.org/TR/2001/REC-SVG-20010904/DTD/svg10.dtd">
<svg version="1.0" xmlns="http://www.w3.org/2000/svg"
 width="379.000000pt" height="401.000000pt" viewBox="0 0 379.000000 401.000000"
 preserveAspectRatio="xMidYMid meet">

<g transform="translate(0.000000,401.000000) scale(0.100000,-0.100000)"
fill="#000000" stroke="none">
<path d="M2500 3980 c-58 -10 -130 -27 -160 -37 -52 -17 -55 -20 -64 -59 -8
-39 -11 -42 -62 -58 -54 -17 -55 -17 -132 11 -69 24 -91 27 -207 28 -145 0
-232 -20 -324 -75 -49 -28 -52 -29 -198 -28 -100 0 -167 -5 -206 -15 -31 -8
-59 -12 -61 -8 -2 3 -9 31 -16 61 -15 67 -46 130 -63 130 -7 0 -40 -18 -74
-41 -68 -44 -123 -103 -123 -131 0 -21 14 -19 109 14 76 25 78 24 83 -27 3
-40 1 -46 -23 -56 -70 -29 -122 -123 -127 -230 -4 -76 -4 -76 -37 -88 -36 -13
-95 -72 -95 -96 0 -42 102 -114 164 -115 l28 0 -36 40 c-44 49 -45 64 -6 80
28 12 33 11 58 -13 44 -42 115 -68 188 -69 35 -1 64 -4 64 -7 0 -3 -24 -19
-52 -36 -28 -16 -53 -36 -56 -44 -11 -34 192 30 226 72 8 9 12 26 10 38 -2 18
7 28 46 49 68 38 148 121 187 193 52 100 68 118 138 151 59 27 76 31 156 31
78 0 97 -4 147 -28 31 -15 73 -46 93 -68 31 -34 36 -46 31 -73 -3 -17 -8 -81
-12 -143 l-7 -111 89 -59 c88 -59 89 -60 87 -98 -2 -21 -14 -57 -28 -81 -31
-52 -79 -79 -210 -119 -111 -33 -196 -78 -234 -121 l-29 -32 -23 25 c-13 14
-78 66 -144 116 l-120 89 -60 -6 c-33 -3 -94 -13 -137 -22 -66 -14 -79 -15
-96 -2 -20 14 -20 16 29 85 30 44 45 74 39 78 -15 9 -30 -5 -81 -79 -42 -62
-46 -64 -93 -69 -48 -4 -52 -3 -115 49 -36 30 -71 54 -78 54 -29 0 -9 -28 57
-80 65 -52 68 -55 56 -79 -11 -19 -35 -31 -122 -57 -60 -19 -110 -34 -111 -34
-2 0 -3 8 -3 19 0 27 -26 44 -68 46 -43 2 -82 -19 -299 -162 -221 -146 -265
-214 -192 -297 16 -19 39 -38 50 -41 10 -4 19 -15 19 -26 0 -30 52 -127 127
-236 114 -168 106 -162 238 -199 137 -40 155 -48 155 -75 0 -11 20 -40 45 -65
25 -24 45 -50 45 -57 1 -27 42 -102 95 -168 65 -84 75 -112 49 -140 -31 -34
-153 -79 -215 -79 -5 0 -9 21 -9 47 0 68 -32 124 -115 201 l-74 68 45 74 c24
41 44 82 44 91 0 41 -233 90 -280 59 -13 -9 -11 -13 10 -30 14 -11 53 -34 87
-53 l62 -33 -25 -31 c-24 -31 -24 -31 -98 -26 -90 7 -138 -9 -209 -69 -47 -39
-50 -40 -87 -29 -51 15 -102 14 -126 -3 -27 -20 -27 -129 0 -170 21 -33 29
-26 40 37 7 38 17 43 61 31 17 -4 20 -14 20 -67 0 -68 27 -128 79 -176 14 -14
26 -29 26 -34 0 -12 -66 0 -102 19 -43 22 -33 0 19 -45 49 -42 107 -74 156
-85 23 -6 27 -3 27 16 0 46 12 49 78 16 l63 -32 67 18 c37 10 130 22 207 26
152 9 262 33 344 74 61 31 117 79 137 117 18 36 18 132 -1 194 -8 27 -13 50
-11 52 5 6 90 -59 124 -94 40 -41 120 -162 146 -220 16 -35 27 -46 72 -64 l53
-22 -37 -46 c-20 -25 -50 -62 -68 -81 -44 -48 -56 -97 -43 -184 10 -72 61
-236 105 -333 27 -63 24 -105 -13 -144 -21 -23 -28 -25 -51 -17 -44 17 -110
-7 -159 -57 -46 -46 -57 -87 -25 -103 36 -19 107 -22 165 -7 70 18 67 18 67 1
0 -29 51 -75 102 -92 68 -22 134 -14 239 29 l84 35 0 128 c0 71 1 178 3 238
l2 109 45 -42 c46 -43 174 -111 208 -111 16 0 15 -4 -8 -44 l-26 -44 20 -33
c10 -19 27 -69 37 -112 16 -68 22 -81 47 -93 15 -9 43 -14 60 -12 29 3 32 6
35 41 l3 39 35 -59 c77 -128 121 -148 326 -148 116 0 140 3 154 17 16 15 16
20 4 45 -8 15 -16 32 -18 36 -3 5 28 7 68 6 68 -4 73 -2 94 22 11 15 41 37 66
49 59 29 110 68 110 83 0 22 -72 84 -133 116 -50 25 -115 87 -103 98 1 2 20
-4 42 -14 25 -11 68 -17 121 -17 l82 -1 3 -30 3 -30 90 1 c50 1 110 8 135 15
l45 13 -60 8 c-33 5 -71 12 -85 15 l-25 6 27 7 c68 20 148 92 188 170 17 33
26 40 49 40 34 0 43 -23 35 -85 l-6 -40 51 52 c41 42 51 58 51 86 0 50 -36 79
-105 85 -44 4 -58 9 -67 26 -40 77 -138 158 -228 189 -40 13 -46 20 -57 58 -7
23 -11 44 -9 47 3 2 52 9 110 15 58 6 103 14 100 18 -10 17 -196 69 -244 69
l-50 0 0 -62 c1 -35 5 -83 10 -108 4 -25 7 -46 6 -47 -1 -1 -15 -4 -31 -7 -17
-2 -30 -5 -30 -5 0 -1 -31 -12 -68 -25 l-68 -23 -28 28 c-15 15 -45 31 -65 35
-21 3 -40 13 -43 22 -6 13 9 249 24 379 6 51 6 51 47 57 22 4 66 8 96 9 49 2
56 5 77 36 13 19 23 48 23 65 0 34 -28 97 -60 136 -11 14 -24 47 -29 74 -9 52
-32 79 -58 69 -12 -5 -13 4 -7 58 4 35 14 100 23 144 15 74 18 80 43 83 66 8
411 252 423 299 9 36 -9 48 -90 62 -90 16 -200 55 -246 87 -35 24 -39 31 -33
57 6 27 -2 37 -92 128 -85 85 -103 99 -131 99 -36 0 -40 7 -20 34 13 18 17 18
115 1 100 -18 103 -18 123 1 12 10 35 46 52 79 60 119 230 585 225 616 -5 29
-288 273 -437 377 l-74 52 -151 -1 c-99 0 -187 -7 -256 -19z m482 -49 c91 -64
257 -201 361 -297 l66 -60 -29 -90 c-40 -126 -146 -405 -185 -490 -43 -93 -70
-124 -104 -118 -142 25 -356 70 -447 93 -108 29 -353 131 -403 170 l-23 18 16
174 c8 96 21 237 27 314 6 77 16 169 22 205 l12 65 79 22 c119 34 246 51 393
52 l133 1 82 -59z m-1958 -40 c8 -15 23 -59 32 -97 9 -38 22 -79 30 -90 15
-25 2 -44 -31 -44 -16 0 -23 10 -33 45 -7 25 -12 59 -12 75 0 17 -4 30 -10 30
-5 0 -44 -11 -86 -26 -42 -14 -80 -24 -85 -22 -17 6 44 70 110 114 36 24 67
44 68 44 1 0 9 -13 17 -29z m956 -42 c78 -12 176 -51 172 -67 -1 -7 -9 -61
-18 -120 -19 -137 -21 -141 -40 -114 -8 12 -35 36 -60 53 -35 24 -43 34 -34
44 31 37 31 141 0 160 -6 4 -6 -4 0 -20 20 -52 4 -146 -24 -144 -40 2 -128 27
-118 33 17 10 15 82 -4 117 -8 17 -18 28 -21 26 -3 -3 2 -16 11 -29 18 -26 21
-80 6 -109 -7 -13 -21 -19 -43 -19 -18 0 -46 -4 -63 -9 -31 -9 -32 -8 -38 30
-4 23 -18 52 -37 71 l-30 33 31 -49 c42 -70 40 -89 -16 -120 -26 -14 -48 -26
-49 -26 -1 0 -5 16 -8 36 -3 19 -22 57 -41 84 l-36 49 43 25 c109 62 276 88
417 65z m260 -280 c-22 -289 -30 -367 -39 -391 -5 -15 -12 -13 -51 16 l-44 32
2 95 c4 108 53 478 65 479 1 0 20 7 42 14 22 8 41 13 43 12 1 -2 -7 -117 -18
-257z m-777 143 c43 -42 87 -130 87 -174 0 -63 -103 -203 -179 -242 -30 -16
-31 -16 -22 6 29 79 18 214 -24 299 -30 59 -86 116 -122 125 -52 13 6 24 119
21 106 -2 107 -2 141 -35z m67 8 c37 -40 64 -111 56 -146 -9 -33 -17 -24 -41
40 -10 28 -36 69 -58 93 l-40 43 28 0 c17 0 37 -11 55 -30z m-355 -1 c53 -13
116 -76 147 -146 41 -92 36 -250 -9 -304 -14 -16 -28 -28 -30 -25 -3 2 5 14
16 25 18 18 21 33 21 100 0 151 -65 282 -161 325 -74 32 -66 46 16 25z m-10
-42 c50 -28 99 -100 125 -184 22 -70 26 -163 10 -194 -9 -16 -14 -17 -31 -6
-17 10 -27 8 -67 -14 -31 -17 -48 -34 -50 -49 -4 -21 -7 -22 -61 -17 -125 11
-214 92 -228 206 -11 97 37 207 109 251 35 21 48 18 48 -11 0 -13 7 -19 23
-19 28 0 67 26 67 46 0 19 8 18 55 -9z m-294 -343 l19 -31 -30 -13 c-38 -16
-40 -47 -5 -89 l26 -30 -30 9 c-70 20 -117 65 -109 106 3 20 85 87 100 82 5
-2 18 -17 29 -34z m396 -68 c-3 -8 3 -25 14 -38 l20 -23 -25 -21 c-29 -25
-132 -66 -154 -62 -9 2 0 13 24 28 41 26 59 70 30 70 -26 0 -18 16 17 39 38
24 82 28 74 7z m1177 -270 c7 -36 8 -110 1 -128 -4 -10 -22 2 -59 39 -29 29
-59 53 -67 53 -7 0 2 -11 21 -24 30 -20 80 -76 80 -89 0 -3 -31 -29 -69 -60
l-70 -56 -6 29 c-4 16 -24 48 -46 72 l-40 43 36 -48 c37 -52 51 -88 41 -112
-6 -16 -81 -53 -127 -62 -25 -5 -26 -2 -32 46 -6 51 -33 111 -50 111 -5 0 1
-13 12 -29 17 -24 42 -141 30 -141 -2 0 -25 -7 -51 -15 l-48 -14 -10 38 c-10
40 -68 127 -77 117 -3 -3 3 -13 12 -23 18 -18 65 -110 65 -128 0 -6 -17 -19
-37 -30 -20 -11 -49 -39 -63 -62 -26 -40 -28 -41 -48 -27 -19 13 -22 25 -22
80 0 51 -5 72 -20 91 -27 34 -25 44 13 80 42 41 112 74 222 108 108 33 151 54
187 92 31 32 58 91 58 127 l0 24 79 -36 c67 -31 80 -41 85 -66z m-1266 -30
c-13 -20 -27 -36 -31 -36 -9 0 -3 11 27 52 28 40 32 27 4 -16z m-193 -21 c22
-18 37 -36 35 -39 -3 -2 -25 13 -50 35 -25 21 -40 38 -35 38 6 0 28 -15 50
-34z m571 -77 c49 -35 126 -99 173 -143 l83 -80 -5 -235 c-4 -180 -10 -256
-25 -326 -32 -147 -46 -159 -109 -98 -55 52 -76 58 -123 34 -21 -11 -66 -45
-99 -76 -38 -35 -67 -54 -78 -52 -20 5 -20 5 1 65 20 53 63 359 76 533 12 159
13 387 3 393 -5 3 -9 -83 -9 -192 -1 -108 -7 -239 -13 -291 -23 -202 -41 -328
-58 -400 l-17 -75 -12 53 c-6 29 -16 58 -21 65 -6 7 -7 54 -2 117 4 58 15 211
24 340 8 129 17 255 20 280 7 68 0 74 -76 60 -100 -18 -409 -87 -461 -103 -27
-8 -48 -11 -48 -7 0 5 -3 15 -6 23 -4 12 16 22 89 46 160 51 480 122 583 130
12 0 61 -27 110 -61z m-375 35 c7 -7 -17 -15 -76 -27 -48 -10 -90 -15 -93 -12
-3 3 5 18 19 32 22 23 30 25 82 22 31 -2 62 -9 68 -15z m-500 -85 c0 -10 2
-10 6 0 8 20 51 14 58 -9 11 -33 -4 -71 -43 -111 -20 -21 -31 -38 -26 -38 12
0 56 46 72 75 11 19 11 18 12 -7 0 -48 -18 -77 -89 -135 -39 -31 -68 -59 -66
-62 3 -2 13 3 23 12 30 28 122 17 122 -14 0 -15 -78 -46 -138 -54 -32 -4 -63
-16 -78 -29 -23 -20 -23 -23 -9 -50 8 -15 15 -32 15 -37 0 -14 -73 -29 -148
-29 -84 0 -132 17 -180 62 -78 77 -24 149 240 316 106 67 134 76 122 40 -16
-54 -25 -68 -49 -84 -14 -9 -23 -19 -21 -22 3 -2 16 2 30 11 31 21 64 103 48
119 -9 9 -2 17 26 34 41 26 72 31 73 12z m2299 -19 c22 -17 57 -53 80 -80 l40
-48 -58 -16 c-109 -32 -269 -117 -592 -317 -160 -98 -267 -197 -318 -292 l-21
-40 -15 35 c-8 20 -20 74 -27 121 -12 85 -12 86 17 138 37 69 118 140 218 191
106 55 216 120 346 204 116 76 232 134 268 135 13 0 41 -14 62 -31z m-687
-283 c2 -5 -30 -32 -70 -58 -118 -80 -176 -164 -172 -251 l3 -51 -37 -8 c-21
-4 -56 -17 -79 -29 l-41 -21 7 34 c17 78 24 138 27 211 3 76 3 80 -24 99 -38
27 -34 52 16 101 36 37 58 48 147 76 58 17 128 42 155 55 l50 23 7 -86 c5 -47
9 -90 11 -95z m843 123 c3 -6 1 -16 -5 -22 -8 -8 -17 -5 -33 11 l-22 22 26 0
c15 0 30 -5 34 -11z m-2386 -51 c0 -23 -4 -29 -16 -24 -9 3 -28 6 -42 6 l-27
1 35 28 c40 34 50 32 50 -11z m2155 -73 c-17 -15 -43 -25 -60 -25 l-30 1 28
24 c18 16 40 25 60 25 l32 -1 -30 -24z m-1826 -36 c14 -41 14 -72 -1 -120 -14
-49 -43 -78 -61 -60 -16 16 -15 159 1 189 19 32 48 28 61 -9z m-329 19 c1 -2
5 -91 10 -198 8 -174 21 -302 36 -352 7 -24 -33 -12 -51 16 -18 27 -55 313
-55 425 0 81 2 89 23 99 22 11 37 14 37 10z m438 -90 c-9 -143 -58 -258 -130
-302 -37 -23 -115 -21 -156 4 -29 18 -72 73 -72 93 0 4 24 4 53 1 72 -9 152
15 196 58 40 39 91 141 98 198 10 72 16 42 11 -52z m690 45 l45 -37 -6 -100
c-7 -113 -38 -248 -73 -317 -23 -47 -39 -59 -75 -59 -17 0 -18 3 -9 20 23 43
50 204 60 355 5 87 7 161 4 166 -11 19 11 7 54 -28z m-910 2 c22 -47 13 -125
-19 -165 l-19 -25 -21 25 c-18 22 -21 34 -16 92 2 37 10 75 17 83 19 23 45 18
58 -10z m2423 8 l73 -16 -49 -16 c-28 -9 -77 -31 -109 -49 -33 -17 -60 -31
-61 -29 -5 6 55 127 63 127 5 0 43 -7 83 -17z m-2711 -81 c0 -48 7 -142 15
-207 8 -66 15 -120 15 -121 0 -1 -23 3 -51 9 l-52 10 -33 74 c-19 41 -41 97
-50 125 -17 50 -17 51 6 68 21 16 23 21 12 45 -7 14 -12 32 -12 39 0 19 63 42
123 45 l27 1 0 -88z m2328 46 c-7 -20 -80 -58 -110 -58 -39 0 -36 25 5 50 36
23 111 28 105 8z m125 -69 c-21 -39 -51 -84 -67 -101 -27 -27 -124 -83 -132
-76 -3 4 84 158 103 183 8 10 112 63 126 64 5 1 -9 -31 -30 -70z m-355 -168
l-59 -100 -77 -25 c-42 -14 -83 -26 -90 -26 -6 0 16 43 50 95 l63 94 80 29
c44 16 83 30 86 31 4 0 -20 -44 -53 -98z m-492 -8 c-2 -10 -8 -50 -11 -89 l-7
-72 -36 -6 c-53 -8 -102 -7 -102 2 0 24 133 182 153 182 4 0 6 -8 3 -17z m194
-1 c0 -5 -26 -40 -58 -78 -62 -73 -82 -81 -114 -42 -18 20 -24 72 -12 102 4
10 14 14 28 11 17 -4 63 0 149 14 4 0 7 -3 7 -7z m-420 -70 c0 -15 10 -48 23
-72 l22 -44 75 3 c41 1 78 5 82 7 9 6 10 1 2 -19 -4 -12 -12 -13 -42 -5 -51
14 -107 4 -147 -26 -32 -24 -41 -26 -145 -26 l-111 0 20 26 c11 14 25 42 32
62 18 58 56 90 129 113 48 14 60 11 60 -19z m-767 -58 c39 -38 51 -113 32
-189 -17 -66 -38 -90 -94 -105 -41 -11 -87 -1 -130 27 -14 10 -30 16 -36 14
-50 -16 -79 0 -90 49 -6 30 8 70 25 70 5 0 38 29 73 64 92 92 173 118 220 70z
m334 -47 c12 -7 31 -24 43 -39 12 -16 29 -28 39 -28 9 0 22 -5 28 -11 6 -6 86
-13 202 -16 l191 -6 0 -61 c-1 -59 -1 -60 -15 -35 -8 15 -25 30 -37 34 -13 4
-119 9 -235 12 l-213 5 -6 34 c-8 44 -58 88 -91 79 -32 -8 -29 2 10 25 37 23
53 24 84 7z m631 -52 c5 -6 5 -72 1 -148 -8 -132 -10 -140 -34 -159 -31 -24
-32 -59 -4 -104 11 -18 19 -46 17 -61 -1 -16 1 -47 6 -71 7 -36 5 -47 -11 -64
-27 -31 -76 -48 -139 -48 -56 0 -58 1 -116 59 -33 33 -57 53 -54 45 10 -25
-13 -25 -30 1 -20 30 -13 62 21 103 l24 29 -24 36 c-31 45 -31 51 0 71 35 23
47 20 43 -11 -3 -25 1 -29 35 -37 53 -14 114 9 143 52 27 40 36 29 33 -40 -1
-43 3 -61 26 -95 16 -24 30 -41 33 -39 2 3 -8 22 -22 43 -21 30 -26 49 -26
100 0 52 -3 63 -20 68 -15 5 -18 13 -15 33 3 15 2 68 -2 117 l-8 90 -35 5 -35
6 30 17 c32 19 147 20 163 2z m319 -13 c-10 -10 -17 -23 -17 -29 0 -14 88
-103 101 -103 10 0 9 -5 -12 -98 l-11 -54 -31 54 c-16 29 -59 81 -94 115 -54
54 -63 68 -63 98 l0 35 72 0 c68 0 70 -1 55 -18z m-1646 -9 c21 -12 29 -25 29
-44 0 -15 -5 -29 -12 -31 -7 -3 5 -22 30 -47 48 -49 45 -62 -16 -88 -45 -19
-91 -3 -132 43 -26 30 -30 43 -30 89 0 42 5 60 20 75 25 25 72 26 111 3z
m1569 -109 c44 -40 117 -144 126 -180 3 -13 -6 -86 -22 -161 l-28 -137 -18 40
c-23 51 -22 86 2 117 31 39 25 62 -25 98 -42 30 -45 36 -39 63 14 60 11 70
-23 81 -32 9 -33 11 -33 62 0 29 4 53 10 53 5 0 28 -16 50 -36z m-1867 -14
c31 -12 57 -24 57 -28 0 -4 -16 -34 -35 -67 -19 -33 -45 -79 -57 -102 -23 -46
-54 -57 -78 -28 -10 12 -5 26 30 80 24 36 41 67 39 69 -2 2 -29 16 -59 31 -78
39 -101 56 -94 67 10 16 131 2 197 -22z m2437 -19 c5 -11 10 -32 10 -48 0 -16
17 -53 40 -87 34 -50 40 -67 40 -111 0 -68 -22 -89 -94 -92 -28 -1 -69 -5 -90
-8 -34 -7 -38 -5 -33 10 4 9 7 37 7 61 0 45 0 45 22 30 25 -18 64 -21 73 -7 3
5 19 12 35 16 17 4 30 11 30 16 0 13 -6 12 -52 -11 -23 -11 -45 -20 -50 -20
-4 0 -17 9 -28 20 -27 27 -30 130 -3 130 32 0 53 31 53 77 0 47 20 59 40 24z
m-2035 -71 c17 -19 17 -20 -9 -30 -17 -6 -33 -24 -42 -46 -21 -49 -11 -55 12
-7 27 55 56 55 137 1 61 -40 95 -82 111 -135 l7 -23 -50 26 -50 26 -38 -18
c-21 -11 -39 -27 -41 -37 -3 -14 1 -13 22 8 38 38 85 34 132 -10 36 -34 36
-36 32 -95 -4 -54 -8 -65 -44 -101 -81 -84 -229 -136 -414 -146 l-115 -6 42
44 c23 24 49 60 57 80 12 29 22 38 46 41 46 7 56 -20 30 -79 -11 -25 -18 -48
-15 -51 10 -11 47 90 41 113 -5 21 -1 25 35 35 22 6 47 14 56 17 14 6 15 -3
10 -68 -5 -58 -4 -70 5 -54 7 11 12 47 12 80 0 55 3 62 33 89 48 41 77 31 109
-37 23 -50 34 -45 14 7 -15 39 -47 66 -80 66 -19 0 -30 5 -30 14 0 7 -30 53
-66 102 -64 85 -72 100 -88 152 -7 20 -4 22 32 22 25 0 49 7 63 20 13 10 24
19 25 20 0 0 9 -9 19 -20z m660 -11 c14 -18 36 -50 48 -73 18 -34 22 -37 25
-20 3 21 4 20 31 -6 15 -16 46 -33 69 -39 48 -13 59 -26 41 -47 -10 -13 -14
-13 -28 0 -27 24 -141 75 -156 70 -10 -4 -17 8 -25 38 -7 23 -23 58 -36 76
-33 43 -6 44 31 1z m255 -1 c-1 -27 -8 -38 -41 -61 -34 -23 -39 -30 -28 -43 6
-8 10 -17 7 -20 -13 -12 -98 36 -98 56 0 4 18 28 41 54 35 40 46 46 80 46 37
0 39 -1 39 -32z m532 22 c7 0 8 -19 4 -52 l-6 -53 45 -34 c25 -18 45 -38 45
-43 0 -5 -9 -21 -20 -35 -28 -36 -25 -70 16 -195 20 -60 34 -112 31 -115 -12
-11 -29 11 -63 80 -20 40 -38 74 -40 76 -1 1 -18 -9 -37 -23 -19 -14 -39 -26
-45 -26 -21 0 -21 -17 4 -84 44 -122 24 -129 -31 -9 -19 41 -50 93 -69 114
-50 54 -67 93 -65 143 2 30 -4 54 -19 78 -28 44 -28 60 -1 84 16 14 23 15 26
7 8 -22 46 -14 118 26 52 28 69 43 67 56 -3 13 1 16 13 11 9 -3 21 -6 27 -6z
m-667 -32 c-26 -32 -54 -54 -59 -46 -1 1 -14 20 -29 41 l-28 37 71 0 72 0 -27
-32z m-1319 -44 c19 -5 20 -9 10 -36 -10 -26 -8 -32 9 -44 30 -22 66 -29 75
-14 14 23 22 -9 21 -91 -1 -129 -56 -226 -160 -283 -48 -26 -51 -26 -51 -7 0
25 -45 61 -78 61 -14 0 -34 -8 -44 -17 -19 -17 -20 -16 -39 7 -11 14 -31 45
-46 69 -69 114 -2 277 141 342 40 18 119 25 162 13z m839 -24 c34 -13 30 -40
-9 -53 -39 -13 -109 8 -104 31 5 27 68 39 113 22z m-670 -135 c15 -49 15 -60
1 -115 -18 -70 -35 -99 -90 -158 -45 -47 -83 -71 -134 -83 -47 -10 -48 5 -1
27 59 26 126 95 155 159 33 71 42 174 21 235 l-16 45 24 -28 c14 -15 32 -52
40 -82z m-519 64 c49 -13 51 -17 28 -60 -11 -22 -20 -29 -35 -25 -10 4 -28 9
-39 12 -17 4 -22 -2 -32 -40 -7 -25 -16 -46 -20 -46 -14 0 -31 78 -24 114 10
55 40 65 122 45z m2651 -21 c-3 -8 -6 -5 -6 6 -1 11 2 17 5 13 3 -3 4 -12 1
-19z m-2012 -152 c19 -126 -52 -233 -181 -272 -50 -15 -104 -18 -141 -8 -26 7
-31 24 -8 24 57 0 161 96 202 187 34 73 39 129 19 190 l-16 48 60 -62 c48 -51
60 -70 65 -107z m718 134 c15 -14 -3 -50 -29 -56 -57 -14 -125 19 -96 48 24
24 103 29 125 8z m1273 -96 c-9 -49 -20 -136 -26 -194 -14 -152 -31 -250 -43
-250 -11 0 -11 1 28 250 33 216 47 292 51 287 3 -2 -2 -44 -10 -93z m-1157 -3
c12 -8 12 -12 2 -25 -16 -19 -116 -22 -127 -4 -18 28 87 53 125 29z m726 -153
l28 -51 -24 7 c-13 4 -64 9 -114 12 -91 6 -100 5 -207 -41 -16 -6 -18 0 -18
54 0 58 1 61 19 51 55 -29 183 0 218 50 l15 22 28 -27 c15 -15 40 -49 55 -77z
m165 31 c24 -46 19 -59 -33 -86 -34 -17 -40 -13 -57 42 -9 28 -10 40 -2 43 7
2 22 12 34 22 32 27 35 25 58 -21z m16 -189 l-22 -114 -67 -11 c-48 -8 -92 -8
-153 0 -94 11 -90 7 -132 105 -13 30 -20 42 -17 25 4 -16 18 -52 31 -79 l24
-48 -21 -35 c-12 -19 -22 -53 -23 -76 -2 -55 -7 -62 -62 -76 -26 -7 -44 -14
-41 -17 2 -3 30 3 60 14 l55 18 32 -33 c18 -18 37 -33 42 -33 6 0 -11 -23 -36
-51 -25 -28 -46 -56 -46 -63 0 -6 11 3 23 19 44 60 67 77 92 71 69 -17 75 -23
75 -71 0 -25 -4 -45 -10 -45 -13 0 -13 -33 1 -47 18 -18 -29 -73 -62 -73 -34
0 -153 61 -203 104 l-38 33 -2 276 -2 277 40 20 c56 26 112 34 199 25 l74 -6
-15 -43 c-14 -37 -14 -52 -3 -100 7 -31 16 -56 21 -56 4 0 1 21 -7 48 -21 69
-5 142 32 142 8 0 18 -15 25 -34 6 -18 19 -41 30 -51 19 -17 20 -17 29 6 5 14
5 31 -1 42 -6 12 -5 17 5 17 7 0 28 11 47 25 19 14 37 22 41 18 5 -5 -2 -60
-15 -123z m-2172 109 c32 -15 40 -37 22 -58 -8 -9 -18 -29 -22 -44 -6 -26 -10
-28 -37 -23 -31 6 -117 57 -136 80 -9 11 -4 11 30 2 36 -9 42 -9 55 9 34 50
44 54 88 34z m1510 -45 c3 -26 6 -82 6 -125 0 -46 4 -79 10 -79 15 0 12 -28
-5 -37 -10 -6 -19 -48 -30 -147 -8 -76 -15 -144 -15 -152 0 -8 -4 -14 -8 -14
-4 0 -1 51 6 113 8 61 15 196 16 299 1 186 7 231 20 142z m1563 -26 l68 -23
-65 -8 c-149 -18 -142 -11 -109 -109 23 -69 20 -88 -14 -88 -26 0 -44 16 -45
40 0 8 -5 39 -11 69 -6 29 -11 76 -11 104 l0 50 59 -6 c32 -4 90 -17 128 -29z
m-1817 -83 c-72 -85 -79 -97 -68 -115 7 -11 16 -20 20 -20 17 0 7 -19 -13 -25
-20 -7 -21 -12 -16 -84 6 -77 23 -141 59 -219 11 -24 18 -46 14 -49 -10 -10
-14 -1 -42 78 -59 169 -78 293 -53 342 7 12 26 38 43 58 17 20 48 57 69 82 21
26 44 47 52 47 8 0 -21 -42 -65 -95z m226 -77 c-8 -119 -37 -391 -42 -397 -6
-6 -122 245 -125 271 -2 16 16 47 60 103 35 43 70 89 78 102 29 44 35 26 29
-79z m464 -16 l35 -7 0 -122 c0 -119 -1 -122 -21 -119 -67 12 -143 78 -157
135 -6 24 13 82 34 108 12 14 53 16 109 5z m197 -6 c-3 -8 -9 -31 -13 -50 -7
-41 -16 -43 -67 -17 -20 10 -37 15 -37 11 0 -4 21 -17 48 -28 55 -24 217 -38
272 -23 34 9 34 9 6 10 -21 1 -27 5 -22 17 3 9 6 27 6 40 0 34 15 30 66 -18
67 -65 55 -73 -108 -73 -134 1 -229 15 -281 42 -23 12 -28 20 -25 46 3 30 6
33 58 44 79 16 103 16 97 -1z m937 -18 c53 -27 134 -104 157 -150 18 -36 22
-38 65 -38 109 0 146 -69 78 -149 -31 -37 -43 -39 -36 -6 2 13 1 36 -2 50 -5
21 -12 25 -46 25 -36 0 -41 -3 -54 -34 -17 -41 -77 -109 -130 -148 -49 -35
-69 -37 -60 -4 5 21 1 24 -31 30 -40 8 -72 1 -97 -21 -15 -13 -19 -10 -42 29
-74 127 -82 278 -20 371 24 36 27 38 43 23 10 -9 31 -16 48 -16 32 0 43 14 43
51 0 23 17 20 84 -13z m-446 2 c51 -23 56 -52 13 -75 -39 -20 -203 -46 -198
-32 2 6 34 19 73 28 81 20 129 38 122 44 -3 3 -24 -2 -48 -10 -23 -8 -43 -15
-44 -15 -1 0 0 18 2 40 5 47 16 49 80 20z m223 -30 c-73 -101 -62 -287 24
-414 30 -44 11 -49 -28 -8 -49 51 -80 138 -85 233 -6 118 23 195 82 219 36 15
37 11 7 -30z m-79 -32 c-22 -43 -27 -65 -27 -127 1 -99 34 -205 83 -262 l36
-42 -53 7 c-97 13 -221 74 -221 109 0 12 -9 41 -20 65 l-19 43 43 67 c23 37
53 86 66 109 20 36 32 46 79 62 31 11 57 20 58 20 1 1 -10 -22 -25 -51z m-652
-54 c61 -10 131 -15 196 -12 l101 3 -9 -25 c-4 -14 -33 -68 -62 -120 -52 -91
-54 -96 -35 -109 22 -16 24 -34 5 -50 -8 -7 -12 -21 -8 -33 3 -14 1 -19 -6
-14 -7 4 -12 3 -12 -3 0 -13 17 -23 23 -14 2 5 2 3 1 -4 -2 -7 19 -54 46 -105
27 -51 50 -98 50 -104 0 -6 -22 0 -49 13 -48 24 -50 24 -86 7 -20 -9 -62 -40
-92 -67 -43 -40 -57 -48 -64 -36 -10 16 -49 116 -49 127 0 4 -19 13 -42 20
-24 6 -67 25 -96 42 l-53 31 27 49 c14 26 41 63 59 80 32 31 33 34 18 57 -14
21 -14 25 0 36 13 10 14 26 7 102 -5 50 -9 109 -9 133 -1 42 -1 42 22 28 12
-9 65 -23 117 -32z m520 19 c0 -10 -49 -94 -78 -131 l-24 -34 23 -71 c20 -57
34 -79 77 -120 l53 -50 -37 -13 c-47 -16 -80 -47 -116 -111 l-29 -52 -46 25
c-25 13 -52 24 -59 24 -16 0 -69 96 -78 142 -5 27 -2 44 9 62 15 23 15 26 -4
45 l-21 21 61 114 c66 126 54 116 178 135 35 6 66 13 69 16 7 7 22 6 22 -2z
m385 -370 c-3 -15 -7 -32 -8 -38 -1 -5 19 -12 45 -15 83 -10 64 -20 -37 -20
l-98 0 7 41 c5 31 4 39 -6 34 -7 -4 -4 1 6 9 11 9 37 16 59 16 38 0 39 -1 32
-27z"/>
<path d="M2850 3955 c0 -3 -11 -44 -25 -92 -14 -49 -41 -164 -60 -258 -18 -93
-52 -241 -74 -327 -22 -87 -43 -184 -46 -215 -4 -47 0 -38 19 47 13 58 37 159
54 225 17 66 47 199 67 295 19 96 46 210 59 253 13 42 20 77 15 77 -5 0 -9 -2
-9 -5z"/>
<path d="M2896 3868 c-13 -32 -77 -290 -167 -671 -31 -130 -39 -181 -31 -189
17 -17 247 -68 338 -75 l82 -6 27 48 c29 49 148 394 181 523 l19 74 -26 18
c-14 11 -59 47 -99 81 -90 75 -294 229 -304 229 -4 0 -13 -15 -20 -32z m408
-280 l28 -24 -32 -114 c-28 -101 -127 -399 -136 -409 -1 -1 -22 3 -46 11 -40
14 -43 17 -40 46 4 41 -9 41 -33 0 -15 -26 -20 -29 -23 -15 -2 12 -10 16 -25
12 -29 -6 -263 57 -260 70 2 6 26 11 55 13 47 3 58 8 98 48 44 42 48 44 91 38
42 -6 48 -4 66 22 28 39 147 279 162 327 l13 37 26 -19 c15 -11 40 -31 56 -43z
m-324 -68 c30 -30 26 -76 -9 -111 -35 -34 -54 -36 -82 -8 -28 28 -20 85 16
117 32 27 49 28 75 2z m-97 -416 c56 -15 108 -27 115 -27 6 0 12 -12 13 -26 0
-24 1 -25 12 -7 7 10 19 28 28 39 16 20 16 20 15 -3 -1 -19 7 -26 46 -39 l48
-16 -27 -44 -26 -44 -70 7 c-63 6 -325 61 -335 70 -2 2 1 21 6 42 6 22 13 51
16 66 6 25 9 26 32 18 14 -6 71 -22 127 -36z"/>
<path d="M3174 3369 c-10 -13 -64 -127 -64 -135 0 -2 4 -4 10 -4 13 0 72 118
68 137 -3 14 -5 14 -14 2z"/>
<path d="M2917 3474 c-9 -10 2 -24 19 -24 8 0 14 7 14 15 0 15 -21 21 -33 9z"/>
<path d="M936 3561 c-4 -5 11 -7 34 -4 37 5 43 2 84 -38 50 -50 80 -130 71
-189 -5 -32 -4 -33 6 -10 24 57 -30 192 -94 230 -33 21 -92 27 -101 11z"/>
<path d="M900 3511 c-6 -12 -9 -43 -7 -69 l3 -47 2 51 c1 27 7 55 14 62 6 6 9
14 6 18 -4 3 -11 -4 -18 -15z"/>
<path d="M948 3509 c-36 -20 -17 -151 29 -201 9 -11 30 -18 50 -18 27 0 35 5
43 26 16 40 12 75 -14 131 -31 67 -66 87 -108 62z m62 -85 c6 -14 10 -33 10
-42 0 -14 -2 -14 -14 -2 -20 20 -32 70 -17 70 6 0 16 -12 21 -26z"/>
<path d="M1090 3271 c-8 -6 -28 -8 -45 -5 -29 4 -29 4 -5 -6 27 -12 70 -6 70
10 0 12 -1 12 -20 1z"/>
<path d="M666 2762 c-8 -16 -30 -42 -47 -56 -37 -32 -34 -46 4 -16 29 23 72
88 64 96 -3 3 -12 -8 -21 -24z"/>
<path d="M505 2611 c-11 -19 -83 -51 -115 -51 -16 0 -30 -4 -30 -9 0 -12 82 5
119 24 31 15 47 33 38 41 -3 3 -8 0 -12 -5z"/>
<path d="M260 2543 c0 -21 54 -76 95 -94 40 -19 135 -26 135 -11 0 4 -15 6
-33 4 -70 -8 -131 23 -182 93 -8 11 -15 15 -15 8z"/>
<path d="M2875 2759 c-10 -16 15 -68 36 -74 37 -12 52 23 29 66 -11 20 -54 26
-65 8z m47 -24 c6 -14 8 -28 4 -33 -9 -8 -36 26 -36 45 0 22 20 14 32 -12z"/>
<path d="M2787 2703 c-4 -3 -7 -21 -7 -39 0 -30 2 -32 35 -31 41 1 45 16 11
51 -25 28 -29 30 -39 19z m20 -45 c-3 -8 -6 -5 -6 6 -1 11 2 17 5 13 3 -3 4
-12 1 -19z"/>
<path d="M2870 2665 c0 -8 5 -15 10 -15 6 0 10 7 10 15 0 8 -4 15 -10 15 -5 0
-10 -7 -10 -15z"/>
<path d="M2670 2629 c0 -9 14 -32 46 -77 4 -6 44 23 44 31 0 5 -9 6 -19 2 -14
-4 -24 2 -37 25 -18 30 -34 39 -34 19z"/>
<path d="M2608 2599 c-22 -12 -24 -62 -4 -78 8 -7 27 -11 43 -9 22 2 29 9 31
31 2 17 -4 37 -14 48 -19 21 -31 23 -56 8z m45 -31 c6 -8 7 -23 4 -32 -5 -14
-11 -15 -27 -6 -11 6 -20 19 -20 29 0 34 24 39 43 9z"/>
<path d="M2536 2551 c-4 -7 -5 -24 -1 -39 6 -26 6 -26 -14 -8 -11 10 -27 16
-36 12 -14 -5 -13 -11 7 -46 29 -51 54 -58 27 -7 -12 21 -11 21 13 5 31 -20
40 -14 27 19 -14 38 -11 40 16 8 16 -20 24 -25 25 -15 0 25 -55 86 -64 71z"/>
<path d="M2443 2493 c-7 -2 -13 -14 -13 -25 0 -17 -3 -18 -15 -8 -23 19 -20
-5 6 -46 23 -37 44 -46 34 -14 -6 18 -3 20 19 14 34 -8 34 9 0 25 -21 9 -25
17 -21 36 2 14 4 25 3 24 0 0 -7 -3 -13 -6z"/>
<path d="M2350 2432 c-43 -35 1 -108 50 -82 11 6 20 15 20 21 0 6 -7 6 -19 -1
-15 -7 -23 -6 -35 6 -20 19 -20 23 1 46 23 25 11 32 -17 10z"/>
<path d="M2265 2379 c-9 -13 14 -99 26 -99 5 0 9 8 9 18 0 26 11 34 27 20 30
-25 24 5 -7 37 -36 37 -45 41 -55 24z m35 -40 c0 -6 -4 -7 -10 -4 -5 3 -10 11
-10 16 0 6 5 7 10 4 6 -3 10 -11 10 -16z"/>
<path d="M2207 2343 c-4 -3 -2 -12 3 -18 7 -9 5 -16 -6 -26 -13 -11 -17 -10
-26 4 -5 10 -13 15 -18 12 -9 -6 24 -70 42 -81 16 -10 22 5 8 22 -19 22 8 39
31 18 27 -25 29 -3 2 37 -28 43 -27 42 -36 32z"/>
<path d="M1011 1889 c0 -14 5 -33 12 -43 12 -17 14 -17 20 -2 4 9 13 16 22 16
8 0 15 4 15 8 0 5 -13 7 -29 4 -24 -3 -30 0 -34 19 -4 23 -4 23 -6 -2z"/>
<path d="M2028 1513 c23 -2 59 -2 80 0 20 2 1 4 -43 4 -44 0 -61 -2 -37 -4z"/>
<path d="M266 1579 c-14 -11 -26 -25 -26 -31 0 -5 14 2 31 16 40 34 101 36
123 4 21 -30 20 -104 -3 -153 -10 -22 -35 -55 -56 -74 -35 -30 -42 -33 -84
-27 -32 4 -41 3 -31 -4 8 -5 32 -10 52 -10 62 0 127 70 147 161 12 55 -1 114
-29 129 -32 17 -95 12 -124 -11z"/>
<path d="M271 1515 c-63 -72 -65 -165 -3 -165 50 0 102 73 102 144 0 65 -51
76 -99 21z m49 -54 c0 -20 -27 -48 -37 -37 -9 8 14 56 27 56 5 0 10 -8 10 -19z"/>
<path d="M3396 880 c-31 -37 -41 -84 -32 -153 13 -96 65 -178 110 -176 20 1
21 1 1 6 -45 11 -77 66 -95 161 -31 175 90 248 161 97 16 -34 18 -35 14 -11
-12 60 -62 106 -115 106 -10 0 -30 -14 -44 -30z"/>
<path d="M3431 814 c-36 -45 -23 -193 19 -219 6 -4 22 -4 35 -1 32 8 48 62 43
139 -4 50 -9 64 -32 84 -34 29 -40 29 -65 -3z m52 -74 c7 -26 -3 -61 -14 -54
-12 7 -12 74 0 74 5 0 11 -9 14 -20z"/>
<path d="M2550 475 c-32 -18 -25 -18 25 0 22 8 31 14 20 14 -11 0 -31 -6 -45
-14z"/>
</g>
</svg>
