<svg width="305" height="216" viewBox="0 0 305 216" fill="none" xmlns="http://www.w3.org/2000/svg">
<path fill-rule="evenodd" clip-rule="evenodd" d="M508.826 20.8329C461.65 76.1433 391.446 111.216 313.052 111.216C171.001 111.216 55.8456 -3.93896 55.8456 -145.99C55.8456 -168.169 58.6529 -189.693 63.9315 -210.225C111.108 -265.535 181.311 -300.608 259.706 -300.608C401.757 -300.608 516.912 -185.453 516.912 -43.4019C516.912 -21.2226 514.105 0.300934 508.826 20.8329ZM511.757 17.3347C516.434 -2.14725 518.912 -22.4852 518.912 -43.4019C518.912 -186.557 402.861 -302.608 259.706 -302.608C182.183 -302.608 112.608 -268.575 65.1076 -214.635C66.4451 -219.477 67.9207 -224.261 69.5297 -228.984C116.302 -293.124 192.027 -334.804 277.487 -334.804C419.538 -334.804 534.693 -219.649 534.693 -77.5977C534.693 -48.5576 529.88 -20.6416 521.009 5.39621C518.04 9.46783 514.954 13.449 511.757 17.3347ZM507.65 25.2436C460.149 79.1835 390.575 113.216 313.052 113.216C169.896 113.216 53.8456 -2.83438 53.8456 -145.99C53.8456 -166.906 56.3231 -187.244 61.0006 -206.726C57.8032 -202.841 54.7175 -198.86 51.7484 -194.788C42.877 -168.75 38.0642 -140.834 38.0642 -111.794C38.0642 30.2571 153.219 145.412 295.27 145.412C380.73 145.412 456.455 103.733 503.228 39.5925C504.837 34.8698 506.312 30.0854 507.65 25.2436ZM62.1094 -211.17C63.1832 -215.316 64.3571 -219.421 65.6282 -223.484C63.2299 -220.008 60.9149 -216.47 58.6861 -212.872C57.0344 -209.011 55.4744 -205.102 54.0089 -201.146C56.6272 -204.555 59.3284 -207.897 62.1094 -211.17ZM71.7901 -235.342C119.172 -297.036 193.686 -336.804 277.487 -336.804C420.643 -336.804 536.693 -220.753 536.693 -77.5977C536.693 -50.6038 532.567 -24.5736 524.911 -0.103577C527.311 -3.58243 529.627 -7.12329 531.858 -10.7233C545.129 -41.7493 552.476 -75.9136 552.476 -111.794C552.476 -253.845 437.321 -369 295.27 -369C202.845 -369 121.806 -320.25 76.464 -247.06C74.8135 -243.202 73.2546 -239.295 71.7901 -235.342ZM69.7235 -235.52C69.0395 -233.662 68.3762 -231.794 67.7338 -229.916C66.562 -228.305 65.4084 -226.68 64.2731 -225.041C66.0117 -228.581 67.8293 -232.075 69.7235 -235.52ZM74.6834 -247.984C114.292 -340.431 206.108 -405.196 313.052 -405.196C456.207 -405.196 572.257 -289.145 572.257 -145.99C572.257 -96.032 558.124 -49.375 533.638 -9.79926C528.546 2.08575 522.591 13.5132 515.852 24.4044C510.762 36.2841 504.81 47.7066 498.074 58.5932C458.465 151.04 366.649 215.804 259.706 215.804C116.55 215.804 0.5 99.7536 0.5 -43.4019C0.5 -93.3599 14.6332 -140.017 39.1194 -179.593C44.2115 -191.478 50.1665 -202.905 56.9055 -213.796C61.9956 -225.676 67.9478 -237.098 74.6834 -247.984ZM82.0507 -259.23C123.931 -344.502 211.637 -403.196 313.052 -403.196C455.102 -403.196 570.257 -288.041 570.257 -145.99C570.257 -101.141 558.778 -58.9724 538.598 -22.263C548.868 -50.167 554.476 -80.3256 554.476 -111.794C554.476 -254.949 438.426 -371 295.27 -371C206.889 -371 128.839 -326.766 82.0507 -259.23ZM526.271 1.44611C525.134 3.08722 523.979 4.71457 522.805 6.32785C522.162 8.20877 521.497 10.0799 520.812 11.941C522.71 8.4902 524.53 4.99112 526.271 1.44611ZM518.749 11.7541C517.283 15.7097 515.723 19.6194 514.071 23.4805C511.843 27.0779 509.528 30.6163 507.129 34.0927C508.4 30.0299 509.574 25.9241 510.648 21.778C513.429 18.5057 516.13 15.1634 518.749 11.7541ZM295.27 147.412C379.072 147.412 453.585 107.644 500.967 45.9504C499.503 49.9034 497.944 53.8106 496.293 57.6693C450.951 130.858 369.912 179.608 277.487 179.608C135.436 179.608 20.2813 64.4532 20.2813 -77.5977C20.2813 -113.478 27.6284 -147.643 40.9 -178.669C43.1303 -182.269 45.4469 -185.81 47.847 -189.288C40.1906 -164.818 36.0642 -138.788 36.0642 -111.794C36.0642 31.3617 152.115 147.412 295.27 147.412ZM51.9453 -201.333C51.2602 -199.472 50.5959 -197.601 49.9526 -195.72C48.7791 -194.107 47.6237 -192.479 46.4868 -190.838C48.2279 -194.383 50.0481 -197.882 51.9453 -201.333ZM503.034 46.1294C504.928 42.6835 506.746 39.1894 508.484 35.6495C507.349 37.2882 506.195 38.9132 505.024 40.5241C504.381 42.4024 503.718 44.2709 503.034 46.1294ZM490.706 69.8388C443.918 137.375 365.868 181.608 277.487 181.608C134.332 181.608 18.2813 65.5578 18.2813 -77.5977C18.2813 -109.066 23.889 -139.225 34.1595 -167.129C13.9791 -130.419 2.5 -88.2512 2.5 -43.4019C2.5 98.649 117.655 213.804 259.706 213.804C361.12 213.804 448.826 155.11 490.706 69.8388Z" fill="white" fill-opacity="0.25"/>
</svg>
