<svg width="70" height="69" viewBox="0 0 70 69" fill="none" xmlns="http://www.w3.org/2000/svg">
<path d="M38.6164 49.8546C37.4074 46.0986 34.8252 42.9373 31.3861 41.0028C27.9471 39.0683 23.9046 38.5031 20.0668 39.4203L0.990588 43.9087L19.7874 37.8931C23.5289 36.6989 26.6849 34.142 28.6294 30.7297C30.5738 27.3173 31.1648 23.2988 30.2849 19.4712L25.8727 0.221571L31.6754 18.8493C32.8559 22.6344 35.4269 25.8315 38.8705 27.7967C42.3142 29.7619 46.3746 30.3492 50.2339 29.4402L69.2288 24.9328L50.529 30.9492C46.7683 32.1508 43.6 34.7282 41.6583 38.1657C39.7166 41.6033 39.1448 45.6473 40.0572 49.4885L44.5832 68.575L38.6164 49.8546Z" fill="white"/>
</svg>
