<svg width="14" height="13" viewBox="0 0 14 13" fill="none" xmlns="http://www.w3.org/2000/svg">
<path d="M11.6072 2.42409C11.3139 2.13074 10.9658 1.89803 10.5826 1.73927C10.1995 1.5805 9.78876 1.49878 9.374 1.49878C8.95924 1.49878 8.54854 1.5805 8.16536 1.73927C7.78219 1.89803 7.43405 2.13074 7.14084 2.42409L6.53232 3.03261L5.9238 2.42409C5.33152 1.83182 4.52823 1.49909 3.69064 1.49909C2.85304 1.49909 2.04975 1.83182 1.45748 2.42409C0.865205 3.01636 0.532471 3.81965 0.532471 4.65725C0.532471 5.49485 0.865205 6.29814 1.45748 6.89041L2.066 7.49893L6.53232 11.9653L10.9986 7.49893L11.6072 6.89041C11.9005 6.5972 12.1332 6.24906 12.292 5.86589C12.4508 5.48271 12.5325 5.07201 12.5325 4.65725C12.5325 4.24249 12.4508 3.83179 12.292 3.44862C12.1332 3.06544 11.9005 2.7173 11.6072 2.42409V2.42409Z" stroke="black" stroke-opacity="0.6" stroke-linecap="round" stroke-linejoin="round"/>
</svg>
